<svg width="24" height="24" viewBox="0 0 24 24" fill="none" xmlns="http://www.w3.org/2000/svg">
<path d="M3.94378 21.2476C6.65878 19.3726 8.47378 16.5076 9.80878 12.9976C11.1588 9.50257 12.5988 6.50257 11.9688 3.05256C11.8788 2.51256 11.1138 1.95756 10.7238 2.00256C9.19378 2.09256 9.29878 3.81756 9.44878 4.85257C9.80878 7.41757 11.7888 10.4026 13.7088 13.1926C15.6138 15.9976 17.1888 16.4326 19.3788 16.5826C20.1288 16.6276 21.2538 16.3726 21.4338 15.7126C22.5888 11.5126 7.90378 14.9026 3.01378 18.8326C2.41378 19.3276 1.72378 20.3326 2.11378 21.0226C2.41378 21.5626 3.41878 21.6226 3.95878 21.2476H3.94378Z" stroke="black" stroke-width="1.5" stroke-linecap="round" stroke-linejoin="round"/>
</svg>
