<svg width="42" height="42" viewBox="0 0 42 42" fill="none" xmlns="http://www.w3.org/2000/svg">
<rect width="42" height="42" rx="21" fill="#F8F8F8"/>
<path d="M20.6274 12C19.5666 12 18.5492 12.4214 17.7991 13.1716C17.049 13.9217 16.6276 14.9391 16.6276 16C16.6276 17.0609 17.049 18.0783 17.7991 18.8284C18.5492 19.5786 19.5666 20 20.6274 20C21.6883 20 22.7056 19.5786 23.4558 18.8284C24.2059 18.0783 24.6273 17.0609 24.6273 16C24.6273 14.9391 24.2059 13.9217 23.4558 13.1716C22.7056 12.4214 21.6883 12 20.6274 12ZM20.6274 20.8C18.7115 20.8 16.9676 21.3552 15.6852 22.1376C15.0453 22.528 14.4981 22.9888 14.1029 23.4896C13.7141 23.9808 13.4277 24.5704 13.4277 25.2C13.4277 25.876 13.7565 26.4088 14.2301 26.7888C14.6781 27.1488 15.2693 27.3872 15.8972 27.5536C17.1596 27.8872 18.8443 28 20.6274 28L21.1754 27.996C21.3094 27.9942 21.4408 27.9587 21.5575 27.8929C21.6742 27.827 21.7725 27.7329 21.8433 27.6192C21.9142 27.5055 21.9554 27.3758 21.9631 27.242C21.9708 27.1083 21.9448 26.9747 21.8874 26.8536C21.5841 26.2115 21.427 25.5101 21.4274 24.8C21.4274 23.7984 21.7338 22.8704 22.257 22.1016C22.3347 21.9874 22.3816 21.8549 22.3929 21.7172C22.4043 21.5794 22.3798 21.4411 22.3218 21.3157C22.2638 21.1902 22.1743 21.0819 22.062 21.0014C21.9497 20.9208 21.8184 20.8707 21.681 20.856C21.3365 20.8187 20.9853 20.8 20.6274 20.8ZM24.2273 22.1528C24.8297 21.8016 25.5704 21.756 26.2272 22.116C26.884 21.756 27.6248 21.8016 28.2271 22.1528C28.9599 22.58 29.4479 23.4248 29.4271 24.3832C29.3983 25.6392 28.4287 26.6216 27.1184 27.4C26.844 27.5624 26.556 27.7336 26.2272 27.7336C25.8992 27.7336 25.6104 27.5624 25.3361 27.4C24.0257 26.6216 23.0562 25.6384 23.0282 24.384C23.0066 23.4256 23.4945 22.58 24.2273 22.1528Z" fill="black"/>
</svg>
