<svg width="24" height="24" viewBox="0 0 24 24" fill="none" xmlns="http://www.w3.org/2000/svg">
<path d="M9.99399 17.9315L9.9941 17.9314C10.1545 18.1199 10.3914 18.25 10.6639 18.25C10.9363 18.25 11.1732 18.1199 11.3336 17.9315L9.99399 17.9315ZM9.99399 17.9315L9.9866 17.9223M9.99399 17.9315L9.9866 17.9223M9.9866 17.9223L9.9848 17.9201M9.9866 17.9223L9.9848 17.9201M9.9848 17.9201C9.90612 17.8265 9.84776 17.7198 9.80904 17.6086C9.76952 17.4951 9.75 17.3756 9.75 17.2568C9.75 17.138 9.76952 17.0185 9.80904 16.905C9.84851 16.7916 9.90839 16.683 9.9894 16.588C9.98948 16.5879 9.98955 16.5878 9.98963 16.5878L9.9848 17.9201ZM16.0009 12.4479L11.3336 17.9314L16.0009 11.0521C16.085 11.1509 16.1473 11.2641 16.1885 11.3825C16.2296 11.501 16.25 11.6258 16.25 11.75C16.25 11.8742 16.2296 11.999 16.1885 12.1175C16.1473 12.2359 16.085 12.3491 16.0009 12.4479C16.0009 12.4479 16.0009 12.4479 16.0009 12.4479ZM11.3336 5.56863L16.0009 11.0521L9.98962 6.91224L10.3699 6.58761L9.98923 6.91177L9.98943 6.91201C9.9084 6.81703 9.84852 6.70838 9.80905 6.59501C9.76952 6.48147 9.75 6.36203 9.75 6.24321C9.75 6.12438 9.76952 6.00494 9.80905 5.89141C9.84776 5.78021 9.90612 5.67354 9.9848 5.57987L9.9866 5.57765L9.9865 5.57756L9.9941 5.56863C10.1545 5.3801 10.3914 5.25 10.6639 5.25C10.9363 5.25 11.1732 5.38006 11.3336 5.56853C11.3336 5.56856 11.3336 5.5686 11.3336 5.56863ZM14.1084 11.749L14.3843 11.4249L14.765 11.749L14.3844 12.0731L14.1084 11.749Z"/>
</svg>
