<svg width="14" height="8" viewBox="0 0 14 8" fill="none" xmlns="http://www.w3.org/2000/svg">
<path id="Vector" d="M0.818537 0.743993L0.818626 0.744098C0.630101 0.90448 0.5 1.14142 0.5 1.41386C0.5 1.68627 0.630056 1.92317 0.818532 2.08355L0.818537 0.743993ZM0.818537 0.743993L0.827653 0.736599M0.818537 0.743993L0.827653 0.736599M0.827653 0.736599L0.82987 0.734802M0.827653 0.736599L0.82987 0.734802M0.82987 0.734802C0.923543 0.656117 1.0302 0.59776 1.14141 0.559045C1.25494 0.519517 1.37438 0.5 1.49321 0.5C1.61203 0.5 1.73147 0.519517 1.84501 0.559045C1.95836 0.598511 2.067 0.658387 2.16198 0.7394C2.16206 0.739475 2.16215 0.739551 2.16224 0.739626L0.82987 0.734802ZM6.30208 6.75085L0.818627 2.08363L7.69791 6.75086C7.59909 6.83497 7.48588 6.89731 7.36746 6.93846C7.24897 6.97963 7.12421 7 7 7C6.87579 7 6.75103 6.97963 6.63254 6.93846C6.51412 6.89731 6.40091 6.83497 6.30209 6.75086C6.30209 6.75086 6.30208 6.75086 6.30208 6.75085ZM13.1814 2.08363L7.69792 6.75085L11.8378 0.739624L12.1624 1.11991L11.8382 0.739228L11.838 0.739426C11.933 0.658401 12.0416 0.598516 12.155 0.559045C12.2685 0.519517 12.388 0.5 12.5068 0.500001C12.6256 0.500001 12.7451 0.519517 12.8586 0.559045C12.9698 0.597761 13.0765 0.656117 13.1701 0.734805L13.1724 0.736603L13.1724 0.736497L13.1814 0.744098C13.3699 0.90448 13.5 1.14142 13.5 1.41387C13.5 1.68627 13.3699 1.92317 13.1815 2.08355C13.1814 2.08358 13.1814 2.08361 13.1814 2.08363ZM7.00097 4.85837L7.32512 5.13429L7.00103 5.51503L6.67687 5.13435L7.00097 4.85837Z"/>
</svg>
