<svg width="24" height="24" viewBox="0 0 24 24" fill="none" xmlns="http://www.w3.org/2000/svg">
<path d="M18.1815 14.756L18.1814 14.7559C18.3699 14.5955 18.5 14.3586 18.5 14.0861C18.5 13.8137 18.3699 13.5768 18.1815 13.4164L18.1815 14.756ZM18.1815 14.756L18.1723 14.7634M18.1815 14.756L18.1723 14.7634M18.1723 14.7634L18.1701 14.7652M18.1723 14.7634L18.1701 14.7652M18.1701 14.7652C18.0765 14.8439 17.9698 14.9022 17.8586 14.941C17.7451 14.9805 17.6256 15 17.5068 15C17.388 15 17.2685 14.9805 17.155 14.941C17.0416 14.9015 16.933 14.8416 16.838 14.7606C16.8379 14.7605 16.8378 14.7604 16.8378 14.7604L18.1701 14.7652ZM12.6979 8.74915L18.1814 13.4164L11.3021 8.74914C11.4009 8.66503 11.5141 8.60269 11.6325 8.56154C11.751 8.52037 11.8758 8.5 12 8.5C12.1242 8.5 12.249 8.52037 12.3675 8.56154C12.4859 8.60269 12.5991 8.66503 12.6979 8.74914C12.6979 8.74914 12.6979 8.74914 12.6979 8.74915ZM5.81863 13.4164L11.3021 8.74915L7.16224 14.7604L6.83761 14.3801L7.16177 14.7608L7.16201 14.7606C7.06703 14.8416 6.95838 14.9015 6.84501 14.941C6.73147 14.9805 6.61203 15 6.49321 15C6.37438 15 6.25494 14.9805 6.14141 14.941C6.03021 14.9022 5.92354 14.8439 5.82987 14.7652L5.82765 14.7634L5.82756 14.7635L5.81863 14.7559C5.6301 14.5955 5.5 14.3586 5.5 14.0861C5.5 13.8137 5.63006 13.5768 5.81853 13.4164C5.81856 13.4164 5.8186 13.4164 5.81863 13.4164ZM11.999 10.6416L11.6749 10.3657L11.999 9.98497L12.3231 10.3656L11.999 10.6416Z" fill="#D7D7D7" stroke="#D7D7D7"/>
</svg>
