<svg width="42" height="42" viewBox="0 0 42 42" fill="none" xmlns="http://www.w3.org/2000/svg">
<!-- <rect width="42" height="42" rx="21" fill="#F8F8F8"/> -->
<path d="M26.0808 21.1567L23.1 23.8056H19.1V22.9167H22.352C22.4244 22.9166 22.4953 22.8948 22.5574 22.8535C22.6195 22.8121 22.6703 22.7529 22.7044 22.682C22.7386 22.6111 22.7548 22.5313 22.7513 22.451C22.7479 22.3707 22.7249 22.2929 22.6848 22.226L21.9744 21.042C21.8284 20.7986 21.6306 20.5989 21.3985 20.4607C21.1665 20.3226 20.9073 20.2502 20.644 20.25H14.3C14.0878 20.25 13.8843 20.3437 13.7343 20.5104C13.5843 20.677 13.5 20.9031 13.5 21.1389V26.4722C13.5 26.9437 13.6686 27.3959 13.9686 27.7293C14.2687 28.0627 14.6757 28.25 15.1 28.25H22.8112C23.1533 28.2501 23.4914 28.1689 23.803 28.0119C24.1145 27.8549 24.3923 27.6258 24.6176 27.3398L29.5 21.1389L28.3384 20.7087C27.9583 20.5681 27.5527 20.5354 27.1583 20.6137C26.764 20.6919 26.3936 20.8786 26.0808 21.1567ZM27.3064 16.1522C27.6672 15.7389 27.8904 15.1673 27.8904 14.5362C27.8904 13.9051 27.6672 13.3336 27.3064 12.9202C27.1239 12.7088 26.9048 12.5404 26.6623 12.4253C26.4198 12.3101 26.1589 12.2505 25.8952 12.25C25.8952 12.25 24.9 12.2473 23.9 13.3931C22.9 12.2473 21.9048 12.25 21.9048 12.25C21.6412 12.2504 21.3803 12.3098 21.1378 12.4249C20.8953 12.5399 20.6762 12.708 20.4936 12.9193C20.1328 13.3336 19.9096 13.9042 19.9096 14.5353C19.9096 15.1664 20.1328 15.7389 20.4936 16.1513L23.9 20.25L27.3064 16.1522Z" />
</svg>
