<svg width="42" height="42" viewBox="0 0 42 42" fill="none" xmlns="http://www.w3.org/2000/svg">
<rect width="42" height="42" rx="21" fill="#F8F8F8"/>
<path fill-rule="evenodd" clip-rule="evenodd" d="M27.7996 14.6648C27.3738 14.2391 26.7963 14 26.1942 14C25.592 14 25.0145 14.2391 24.5887 14.6648L24.0535 15.2007L27.8004 18.9475L28.3348 18.4123C28.5457 18.2015 28.713 17.9511 28.8271 17.6756C28.9412 17.4001 29 17.1048 29 16.8065C29 16.5083 28.9412 16.213 28.8271 15.9375C28.713 15.6619 28.5457 15.4116 28.3348 15.2007L27.7996 14.6648ZM26.7293 20.0177L22.9825 16.271L16.102 23.1521C15.9514 23.3027 15.8462 23.4926 15.7984 23.7001L15.0196 27.0722C14.9905 27.1973 14.9939 27.3278 15.0292 27.4514C15.0646 27.5749 15.1308 27.6874 15.2217 27.7783C15.3126 27.8692 15.4251 27.9354 15.5486 27.9708C15.6722 28.0061 15.8027 28.0095 15.9279 27.9804L19.3008 27.2023C19.508 27.1544 19.6976 27.0493 19.848 26.8988L26.7293 20.0177Z" fill="#0A0A0A"/>
</svg>
