<svg width="42" height="42" viewBox="0 0 42 42" fill="none" xmlns="http://www.w3.org/2000/svg">
<path fill-rule="evenodd" clip-rule="evenodd" d="M22.3291 31.8937L22.3314 31.8925L22.3371 31.8884L22.3543 31.875L22.4217 31.8254C22.4796 31.7823 22.5615 31.7193 22.6674 31.6364C22.8777 31.4719 23.176 31.2298 23.532 30.9189C24.4665 30.1035 25.3404 29.2183 26.1463 28.2705C28.0366 26.0386 30 22.8536 30 19.2112C30 17.0353 29.1577 14.9469 27.6583 13.4069C26.9172 12.6446 26.0357 12.0395 25.0646 11.6265C24.0936 11.2134 23.052 11.0005 22 11C20.948 11.0004 19.9065 11.2132 18.9354 11.6262C17.9643 12.0392 17.0828 12.6441 16.3417 13.4063C14.841 14.95 13.9992 17.0369 14 19.2118C14 22.8536 15.9634 26.0386 17.8537 28.2705C18.6596 29.2183 19.5335 30.1035 20.468 30.9189C20.8246 31.2298 21.1223 31.4719 21.3326 31.6364C21.4357 31.7175 21.5399 31.7973 21.6451 31.8756L21.6634 31.8884L21.6686 31.8925L21.6709 31.8937C21.868 32.0354 22.132 32.0354 22.3291 31.8937ZM24.8571 19.1668C24.8571 19.9404 24.5561 20.6823 24.0203 21.2293C23.4845 21.7763 22.7578 22.0836 22 22.0836C21.2422 22.0836 20.5155 21.7763 19.9797 21.2293C19.4439 20.6823 19.1429 19.9404 19.1429 19.1668C19.1429 18.3933 19.4439 17.6514 19.9797 17.1044C20.5155 16.5574 21.2422 16.2501 22 16.2501C22.7578 16.2501 23.4845 16.5574 24.0203 17.1044C24.5561 17.6514 24.8571 18.3933 24.8571 19.1668Z" fill="#BFBFBF"/>
</svg>
