<svg width="36" height="36" viewBox="0 0 36 36" fill="none" xmlns="http://www.w3.org/2000/svg">
<path d="M8.45406 10.1782C10.9858 7.71679 14.4196 6.33398 18 6.33398C21.5804 6.33398 25.0142 7.71679 27.5459 10.1782C30.0777 12.6396 31.5 15.978 31.5 19.459V26.0215C31.5 28.0602 31.5 29.0796 31.158 29.8832C30.9318 30.4141 30.6003 30.8966 30.1823 31.3029C29.7644 31.7093 29.2681 32.0316 28.722 32.2515C27.8955 32.584 26.847 32.584 24.75 32.584H18C14.4196 32.584 10.9858 31.2012 8.45406 28.7398C5.92232 26.2783 4.5 22.94 4.5 19.459C4.5 15.978 5.92232 12.6396 8.45406 10.1782Z" fill="#38AB78"/>
<path d="M22.5 19.459C22.5 19.0722 22.658 18.7013 22.9393 18.4278C23.2206 18.1543 23.6022 18.0007 24 18.0007C24.3978 18.0007 24.7794 18.1543 25.0607 18.4278C25.342 18.7013 25.5 19.0722 25.5 19.459C25.5 19.8458 25.342 20.2167 25.0607 20.4902C24.7794 20.7637 24.3978 20.9173 24 20.9173C23.6022 20.9173 23.2206 20.7637 22.9393 20.4902C22.658 20.2167 22.5 19.8458 22.5 19.459ZM16.5 19.459C16.5 19.0722 16.658 18.7013 16.9393 18.4278C17.2206 18.1543 17.6022 18.0007 18 18.0007C18.3978 18.0007 18.7794 18.1543 19.0607 18.4278C19.342 18.7013 19.5 19.0722 19.5 19.459C19.5 19.8458 19.342 20.2167 19.0607 20.4902C18.7794 20.7637 18.3978 20.9173 18 20.9173C17.6022 20.9173 17.2206 20.7637 16.9393 20.4902C16.658 20.2167 16.5 19.8458 16.5 19.459ZM12 20.9173C11.6022 20.9173 11.2206 20.7637 10.9393 20.4902C10.658 20.2167 10.5 19.8458 10.5 19.459C10.5 19.0722 10.658 18.7013 10.9393 18.4278C11.2206 18.1543 11.6022 18.0007 12 18.0007C12.3978 18.0007 12.7794 18.1543 13.0607 18.4278C13.342 18.7013 13.5 19.0722 13.5 19.459C13.5 19.8458 13.342 20.2167 13.0607 20.4902C12.7794 20.7637 12.3978 20.9173 12 20.9173Z" fill="white"/>
</svg>
