<svg width="42" height="42" viewBox="0 0 42 42" fill="none" xmlns="http://www.w3.org/2000/svg">
<!-- <rect width="42" height="42" rx="21" fill="#F8F8F8"/> -->
<g clip-path="url(#clip0_1611_28369)">
<path d="M21.4667 12.16C21.332 12.0561 21.1683 12 21 12C20.8317 12 20.668 12.0561 20.5333 12.16C20.2093 12.4153 19.9105 12.7029 19.6412 13.0184C19.2344 13.4896 18.6667 14.284 18.6667 15.2C18.6667 15.8365 18.9125 16.447 19.3501 16.8971C19.7877 17.3471 20.3812 17.6 21 17.6H16.3333C15.7145 17.6 15.121 17.8529 14.6834 18.3029C14.2458 18.753 14 19.3635 14 20V21.6C14 22.5888 15.0974 23.1536 15.8667 22.56L16.3854 22.16C16.5201 22.0561 16.6838 22 16.8521 22C17.0204 22 17.1841 22.0561 17.3188 22.16L17.5257 22.32C17.9296 22.6316 18.4208 22.8 18.9257 22.8C19.4305 22.8 19.9218 22.6316 20.3257 22.32L20.5333 22.16C20.668 22.0561 20.8317 22 21 22C21.1683 22 21.332 22.0561 21.4667 22.16L21.6743 22.32C22.0782 22.6316 22.5695 22.8 23.0743 22.8C23.5792 22.8 24.0704 22.6316 24.4743 22.32L24.6812 22.16C24.8159 22.0561 24.9796 22 25.1479 22C25.3162 22 25.4799 22.0561 25.6146 22.16L26.1333 22.56C26.9026 23.1536 28 22.5888 28 21.6V20C28 19.3635 27.7542 18.753 27.3166 18.3029C26.879 17.8529 26.2855 17.6 25.6667 17.6H21C21.6188 17.6 22.2123 17.3471 22.6499 16.8971C23.0875 16.447 23.3333 15.8365 23.3333 15.2C23.3333 14.284 22.7656 13.4896 22.3588 13.0184C22.0897 12.7064 21.791 12.4104 21.4667 12.16ZM14.7778 24.332V26.4C14.7778 26.8243 14.9417 27.2313 15.2334 27.5314C15.5251 27.8314 15.9208 28 16.3333 28H25.6667C26.0792 28 26.4749 27.8314 26.7666 27.5314C27.0583 27.2313 27.2222 26.8243 27.2222 26.4V24.332C27.0412 24.3992 26.8467 24.4187 26.6565 24.3887C26.4663 24.3586 26.2864 24.28 26.1333 24.16L25.6146 23.76C25.4799 23.6561 25.3162 23.6 25.1479 23.6C24.9796 23.6 24.8159 23.6561 24.6812 23.76L24.4743 23.92C24.0704 24.2316 23.5792 24.4 23.0743 24.4C22.5695 24.4 22.0782 24.2316 21.6743 23.92L21.4667 23.76C21.332 23.6561 21.1683 23.6 21 23.6C20.8317 23.6 20.668 23.6561 20.5333 23.76L20.3257 23.92C19.9218 24.2316 19.4305 24.4 18.9257 24.4C18.4208 24.4 17.9296 24.2316 17.5257 23.92L17.3188 23.76C17.1841 23.6561 17.0204 23.6 16.8521 23.6C16.6838 23.6 16.5201 23.6561 16.3854 23.76L15.8667 24.16C15.7136 24.28 15.5338 24.3586 15.3435 24.3887C15.1533 24.4187 14.9588 24.3992 14.7778 24.332Z"/>
</g>
<defs>
<clipPath id="clip0_1611_28369">
<rect width="24" height="24" fill="white" transform="translate(9 9)"/>
</clipPath>
</defs>
</svg>
