<svg width="24" height="24" viewBox="0 0 24 24" fill="none" xmlns="http://www.w3.org/2000/svg">
<path d="M3 8.5C3 7.102 3 6.403 3.228 5.852C3.37877 5.48791 3.59979 5.15709 3.87844 4.87844C4.15709 4.59979 4.48791 4.37877 4.852 4.228C5.403 4 6.102 4 7.5 4H16.5C17.898 4 18.597 4 19.148 4.228C19.5121 4.37877 19.8429 4.59979 20.1216 4.87844C20.4002 5.15709 20.6212 5.48791 20.772 5.852C21 6.403 21 7.102 21 8.5V9.25C21 9.44891 20.921 9.63968 20.7803 9.78033C20.6397 9.92098 20.4489 10 20.25 10H20C19.4696 10 18.9609 10.2107 18.5858 10.5858C18.2107 10.9609 18 11.4696 18 12C18 12.5304 18.2107 13.0391 18.5858 13.4142C18.9609 13.7893 19.4696 14 20 14H20.25C20.4489 14 20.6397 14.079 20.7803 14.2197C20.921 14.3603 21 14.5511 21 14.75V15.5C21 16.898 21 17.597 20.772 18.148C20.6212 18.5121 20.4002 18.8429 20.1216 19.1216C19.8429 19.4002 19.5121 19.6212 19.148 19.772C18.597 20 17.898 20 16.5 20H7.5C6.102 20 5.403 20 4.852 19.772C4.48791 19.6212 4.15709 19.4002 3.87844 19.1216C3.59979 18.8429 3.37877 18.5121 3.228 18.148C3 17.597 3 16.898 3 15.5V14.75C3 14.5511 3.07902 14.3603 3.21967 14.2197C3.36032 14.079 3.55109 14 3.75 14H4C4.53043 14 5.03914 13.7893 5.41421 13.4142C5.78929 13.0391 6 12.5304 6 12C6 11.4696 5.78929 10.9609 5.41421 10.5858C5.03914 10.2107 4.53043 10 4 10H3.75C3.55109 10 3.36032 9.92098 3.21967 9.78033C3.07902 9.63968 3 9.44891 3 9.25V8.5Z" />
<path d="M11.596 8.55111C11.6424 8.48747 11.7032 8.4357 11.7734 8.4C11.8436 8.36431 11.9213 8.3457 12 8.3457C12.0788 8.3457 12.1564 8.36431 12.2266 8.4C12.2968 8.4357 12.3576 8.48747 12.404 8.55111L13.363 9.86311C13.4248 9.94759 13.5116 10.0105 13.611 10.0431L15.154 10.5501C15.2287 10.5746 15.2965 10.6164 15.352 10.672C15.4075 10.7276 15.4491 10.7955 15.4735 10.8702C15.4978 10.9449 15.5042 11.0243 15.4922 11.102C15.4801 11.1796 15.4499 11.2533 15.404 11.3171L14.453 12.6351C14.3917 12.7198 14.3585 12.8216 14.358 12.9261L14.353 14.5511C14.3529 14.6298 14.3341 14.7073 14.2984 14.7774C14.2626 14.8475 14.2108 14.9082 14.1472 14.9544C14.0835 15.0007 14.0099 15.0313 13.9322 15.0438C13.8545 15.0562 13.7749 15.0502 13.7 15.0261L12.153 14.5281C12.0535 14.4961 11.9465 14.4961 11.847 14.5281L10.3 15.0261C10.2251 15.0502 10.1456 15.0562 10.0679 15.0438C9.99019 15.0313 9.91654 15.0007 9.85291 14.9544C9.78927 14.9082 9.73747 14.8475 9.70169 14.7774C9.66592 14.7073 9.64719 14.6298 9.64703 14.5511L9.64203 12.9261C9.64156 12.8216 9.60834 12.7198 9.54703 12.6351L8.59603 11.3171C8.55015 11.2533 8.51995 11.1796 8.50789 11.102C8.49582 11.0243 8.50222 10.9449 8.52657 10.8702C8.55092 10.7955 8.59253 10.7276 8.64804 10.672C8.70354 10.6164 8.77137 10.5746 8.84603 10.5501L10.389 10.0431C10.4885 10.0105 10.5752 9.94759 10.637 9.86311L11.596 8.55111Z" fill="white"/>
</svg>
