<svg width="63" height="49" viewBox="0 0 63 49" fill="none" xmlns="http://www.w3.org/2000/svg">
<path fill-rule="evenodd" clip-rule="evenodd" d="M25.3007 3.25379L24.6085 3.88228C24.5034 3.94419 24.3839 3.97466 24.2632 3.97031L22.9627 3.61293C22.8778 3.61293 22.793 3.52491 22.7031 3.43688L22.2704 2.62882C22.1856 2.45277 22.1856 2.26968 22.2704 2.1799L23.1357 0.923796C23.2206 0.747748 23.3953 0.654442 23.5684 0.747748L24.9521 1.28645C25.1251 1.28645 25.2117 1.37624 25.2117 1.55581L25.4713 2.90169C25.4491 3.03394 25.3898 3.15645 25.3007 3.25379ZM32.1343 10.2544L32.304 9.08715C32.3015 8.92116 32.2412 8.7617 32.1343 8.63822L30.8371 8.01061C30.6675 7.92259 30.491 7.92259 30.4045 8.09864L29.3661 9.2676C29.193 9.44717 29.193 9.62674 29.3661 9.80631L30.2314 10.8837C30.2498 10.9022 30.2696 10.919 30.2908 10.9339L30.3196 10.9533C30.3358 10.9621 30.3519 10.9709 30.3697 10.9788C30.416 11.0009 30.4665 11.0119 30.5175 11.011C30.5684 11.0101 30.6185 10.9973 30.6641 10.9735L31.9612 10.6144C31.9626 10.592 31.9702 10.5706 31.9833 10.5527C31.9965 10.5332 32.0107 10.5144 32.0257 10.4964C32.059 10.4597 32.0875 10.4185 32.1105 10.3741C32.1271 10.3365 32.1352 10.2956 32.1343 10.2544ZM21.0623 12.2287L21.495 11.1522C21.5662 11.0043 21.5196 10.9172 21.4534 10.7913C21.4398 10.7658 21.4254 10.7376 21.411 10.7033L20.6322 9.80542C20.5474 9.62938 20.3726 9.62938 20.1995 9.7174L19.0755 10.2561C18.996 10.2982 18.9295 10.3626 18.8836 10.4419C18.8377 10.5213 18.8142 10.6125 18.8159 10.705L19.162 12.1407C19.162 12.3168 19.3317 12.4101 19.5081 12.4101H20.6297C20.8893 12.4981 20.9758 12.4083 21.0623 12.2287ZM28.9343 28.8336C28.7646 28.7456 28.5016 28.5642 28.4151 28.3847C27.4632 26.9481 26.2526 25.3329 24.5219 24.7942C24.1767 24.7061 23.2248 24.2555 22.1864 23.5372C21.495 23.0891 20.5431 22.3709 20.197 21.9219C18.7268 19.9476 16.6508 18.7804 14.4884 18.9608C14.2288 18.9608 13.7961 19.2249 13.45 19.4986L13.3651 19.5867C13.2803 19.6747 13.1955 19.7627 13.1955 19.856C13.1946 19.8399 13.1946 19.8237 13.1955 19.8076C13.1972 19.7865 13.2009 19.7655 13.2065 19.7451L13.3651 19.5867C13.3258 19.5913 13.2873 19.6094 13.2589 19.6381C13.2305 19.6668 13.2121 19.7044 13.2065 19.7451C8.3106 24.7 4.59647 29.9867 2.64015 34.6652C-2.29308 45.1682 3.67515 51.8096 14.0549 47.0528C18.7259 45.0784 24.1758 41.2186 29.1056 36.1924C29.5383 35.5648 29.971 34.9363 30.144 34.218C30.6641 32.4232 30.6641 29.7306 28.9343 28.8336ZM26.8575 34.218C22.1007 38.9713 17.0835 42.4756 12.9308 44.2704C2.46454 48.7596 2.1184 41.3084 6.27029 33.7691C6.43996 33.4108 6.87602 33.4108 7.13562 33.5931C8.60583 35.0296 9.90382 36.6449 10.9414 39.0682C10.9955 39.2047 11.0954 39.3163 11.2226 39.3823C11.3499 39.4484 11.4959 39.4643 11.6336 39.4273L13.2769 38.709C13.5365 38.621 13.7096 38.261 13.623 37.9018C12.2394 34.6705 10.5087 32.6063 8.60583 30.9004C8.34623 30.7244 8.34623 30.3626 8.52099 30.0932C9.29979 28.926 10.0786 27.8495 11.0296 26.6823C11.1993 26.5062 11.5488 26.4129 11.7219 26.5062C14.7497 28.3019 16.9987 31.2595 18.4689 34.2251C18.6419 34.4944 18.9015 34.5842 19.2477 34.4944L20.8044 33.6864C21.064 33.5103 21.2371 33.1485 21.064 32.8792C19.4207 29.558 16.9121 26.4165 13.7978 24.2625C13.7309 24.2129 13.6749 24.149 13.6338 24.075C13.5926 24.0011 13.5672 23.919 13.5591 23.834C13.5511 23.7491 13.5607 23.6633 13.5872 23.5825C13.6137 23.5017 13.6566 23.4277 13.713 23.3655C13.9293 23.1411 14.1236 22.9166 14.3187 22.6922C14.5138 22.4677 14.7081 22.2432 14.9244 22.0188C15.0941 21.8427 15.2697 21.8427 15.5293 21.8427C16.6805 22.2247 17.4636 23.0645 18.2568 23.9148C18.955 24.663 19.6617 25.42 20.6322 25.8821C21.4644 26.5291 22.1363 26.8029 22.7735 27.0625C23.4606 27.3425 24.1079 27.6065 24.8706 28.3055C25.1404 28.6153 25.4093 28.9903 25.6825 29.3705C26.1983 30.0888 26.7268 30.8247 27.2944 31.1768C27.4675 31.2666 27.554 31.4462 27.554 31.7155C27.4632 32.9619 27.3741 33.4998 26.8575 34.218ZM40.4389 11.6002C49.3467 14.652 56.6146 17.7038 61.2857 24.6146C67.7731 39.0646 43.2063 37.0903 34.4698 34.0385C33.6919 33.8624 32.74 33.1415 32.4804 32.4232C31.5286 30.4488 31.7882 27.7579 32.5653 26.2298C32.7593 25.6821 33.0027 25.1545 33.2923 24.6542C33.5164 24.2703 33.7072 23.8664 33.8624 23.4474C34.0906 22.5918 34.1118 21.6491 34.1339 20.6949C34.1797 18.7478 34.2255 16.7558 36.0257 15.3703C36.2482 15.1507 36.4507 14.9102 36.6306 14.652C36.7426 14.454 36.8554 14.2427 36.97 14.0262C37.742 12.5738 38.6319 10.8978 40.4389 11.6002ZM35.4217 31.256C43.7255 33.4108 50.8186 34.3976 57.3943 31.6152C62.8441 28.4736 57.049 23.2687 53.4154 20.665C53.3344 20.6055 53.2394 20.5699 53.1404 20.5621C53.0414 20.5543 52.9423 20.5745 52.8535 20.6206C52.7648 20.6667 52.6897 20.7369 52.6364 20.8238C52.5832 20.9107 52.5536 21.0109 52.551 21.1139C52.4661 22.9994 52.551 25.7792 52.8962 27.1277C52.917 27.1805 52.9267 27.2373 52.9246 27.2942C52.9225 27.3512 52.9087 27.4071 52.8841 27.4581C52.8595 27.5091 52.8247 27.554 52.782 27.59C52.7394 27.6259 52.6898 27.6519 52.6366 27.6664L50.8203 28.3838C50.5607 28.5598 50.3011 28.3838 50.2146 28.1144C49.4366 25.5124 49.5232 21.7424 49.7828 18.8719C49.8676 18.6959 49.6979 18.423 49.5232 18.3341C48.2567 17.6651 46.9572 17.0657 45.63 16.5384C45.4924 16.5014 45.3465 16.5174 45.2194 16.5834C45.0923 16.6495 44.9925 16.761 44.9386 16.8975C43.7271 20.1289 43.7271 24.4368 44.3329 27.0397C44.4177 27.309 44.248 27.5784 43.9867 27.6682L42.0839 28.2069C41.8243 28.2949 41.5647 28.1188 41.4781 27.8477C40.7002 24.7061 40.7002 19.68 41.9973 15.9108C42.033 15.7679 42.0176 15.6164 41.954 15.4843C41.8904 15.3523 41.7828 15.2486 41.6512 15.1925C41.2185 15.0165 40.7859 14.9231 40.2675 14.7436C40.0979 14.6556 39.7483 14.7436 39.6618 15.0129C39.5676 15.189 39.4794 15.3703 39.392 15.5472C38.9975 16.3456 38.6243 17.1009 37.8455 17.6158C37.2397 18.1545 36.9801 18.6923 36.9801 18.8719C36.8614 19.1193 36.9055 19.9159 36.9453 20.6245C36.9632 20.9466 36.9801 21.2503 36.9801 21.4748C36.8105 23.4492 36.634 24.5266 35.856 25.876C35.0781 27.2254 34.2985 28.7482 34.7311 30.5413C34.7721 30.7146 34.8582 30.8729 34.98 30.999C35.1017 31.125 35.2545 31.2139 35.4217 31.256Z" />
</svg>
