<svg width="32" height="32" viewBox="0 0 32 32" fill="none" xmlns="http://www.w3.org/2000/svg">
<rect width="32" height="32" rx="16" fill="white"/>
<path d="M19.9527 14.3225C18.2836 12.7925 18.1364 9.995 18.1364 9.5H16.9091V11H13.6364V9.5H12C12 8.675 12.7364 8 13.6364 8H19.3636V8.75C19.3636 8.81 19.3964 12.2225 20.82 13.5275L19.9527 14.3225ZM20.1818 8V9.5H21V8H20.1818ZM18.5455 15.5C16.9091 14 16.9091 11.75 16.9091 11.75H13.6364V13.25C13.6364 14 13.6364 14 12.8182 14.75C12 15.5 12 16.25 12 16.25V21.5C12 22.325 12.7364 23 13.6364 23H16.9091C17.8091 23 18.5455 22.325 18.5455 21.5V15.5Z" fill="#0A0A0A"/>
</svg>
