<svg width="24" height="24" viewBox="0 0 24 24" fill="none" xmlns="http://www.w3.org/2000/svg">
<path d="M11 1.91992C9.67392 1.91992 8.40215 2.42563 7.46447 3.32581C6.52678 4.22598 6 5.44688 6 6.71992C6 7.99296 6.52678 9.21386 7.46447 10.114C8.40215 11.0142 9.67392 11.5199 11 11.5199C12.3261 11.5199 13.5979 11.0142 14.5355 10.114C15.4732 9.21386 16 7.99296 16 6.71992C16 5.44688 15.4732 4.22598 14.5355 3.32581C13.5979 2.42563 12.3261 1.91992 11 1.91992ZM11 12.4799C8.605 12.4799 6.425 13.1462 4.822 14.085C4.022 14.5535 3.338 15.1065 2.844 15.7074C2.358 16.2969 2 17.0044 2 17.7599C2 18.5711 2.411 19.2105 3.003 19.6665C3.563 20.0985 4.302 20.3846 5.087 20.5842C6.665 20.9846 8.771 21.1199 11 21.1199L11.685 21.1151C11.8525 21.1129 12.0167 21.0704 12.1626 20.9914C12.3085 20.9124 12.4313 20.7994 12.5199 20.663C12.6085 20.5265 12.66 20.3709 12.6696 20.2104C12.6792 20.0498 12.6467 19.8896 12.575 19.7442C12.1958 18.9737 11.9994 18.1321 12 17.2799C12 16.078 12.383 14.9644 13.037 14.0418C13.1342 13.9047 13.1928 13.7458 13.207 13.5805C13.2212 13.4152 13.1905 13.2492 13.118 13.0987C13.0455 12.9482 12.9336 12.8183 12.7932 12.7216C12.6528 12.6249 12.4888 12.5648 12.317 12.5471C11.8863 12.5023 11.4473 12.4799 11 12.4799ZM15.5 14.1033C16.253 13.6818 17.179 13.6271 18 14.0591C18.821 13.6271 19.747 13.6818 20.5 14.1033C21.416 14.6159 22.026 15.6297 22 16.7798C21.964 18.287 20.752 19.4658 19.114 20.3999C18.771 20.5948 18.411 20.8002 18 20.8002C17.59 20.8002 17.229 20.5948 16.886 20.3999C15.248 19.4658 14.036 18.286 14.001 16.7807C13.974 15.6306 14.584 14.6159 15.5 14.1033Z" fill="#BFBFBF"/>
</svg>
