<svg width="42" height="42" viewBox="0 0 42 42" fill="none" xmlns="http://www.w3.org/2000/svg">
<!-- <rect width="42" height="42" rx="21" fill="#F8F8F8"/> -->
<g clip-path="url(#clip0_1611_28379)">
<path d="M28.5908 25.4282C26.9169 25.4114 25.2939 24.9134 23.9646 24.0085C22.6352 23.1037 21.6707 21.8407 21.2152 20.4082C20.7596 18.9756 20.8376 17.4504 21.4373 16.0605C22.0371 14.6706 23.1264 13.4906 24.5426 12.6967C23.827 12.5314 23.0908 12.447 22.3515 12.4453C19.9656 12.4453 17.6774 13.2882 15.9903 14.7885C14.3033 16.2887 13.3555 18.3236 13.3555 20.4453C13.3555 22.567 14.3033 24.6019 15.9903 26.1022C17.6774 27.6025 19.9656 28.4453 22.3515 28.4453C23.7031 28.4442 25.0366 28.1688 26.2503 27.64C27.4641 27.1112 28.5261 26.343 29.3555 25.3939C29.1014 25.4166 28.8462 25.428 28.5908 25.4282Z" />
</g>
<defs>
<clipPath id="clip0_1611_28379">
<rect width="22" height="22" fill="white" transform="translate(10 10)"/>
</clipPath>
</defs>
</svg>
