<svg width="42" height="42" viewBox="0 0 42 42" fill="none" xmlns="http://www.w3.org/2000/svg">
<!-- <rect width="42" height="42" rx="21" fill="#F8F8F8"/> -->
<path d="M13.9859 16.0002H27.0963L27.152 16.0018C27.6483 16.0212 28.1181 16.2402 28.4627 16.6128C28.8073 16.9853 28.9999 17.4825 29 17.9999V26C29 26.5304 28.7977 27.0391 28.4376 27.4142C28.0776 27.7893 27.5892 28 27.08 28H14.92C14.4108 28 13.9224 27.7893 13.5624 27.4142C13.2023 27.0391 13 26.5304 13 26V17.9999L13.001 17.9315L13.0042 17.8715C12.982 17.4949 13.0624 17.1194 13.236 16.7883C13.4097 16.4571 13.6697 16.1842 13.9859 16.0002ZM23.88 20.6666C23.5405 20.6666 23.2149 20.807 22.9749 21.0571C22.7349 21.3071 22.6 21.6463 22.6 21.9999C22.6 22.3535 22.7349 22.6927 22.9749 22.9427C23.2149 23.1928 23.5405 23.3333 23.88 23.3333C24.2195 23.3333 24.545 23.1928 24.7851 22.9427C25.0251 22.6927 25.16 22.3535 25.16 21.9999C25.16 21.6463 25.0251 21.3071 24.7851 21.0571C24.545 20.807 24.2195 20.6666 23.88 20.6666ZM27.031 13.4831C27.0744 13.6516 27.0965 13.8253 27.0966 13.9998L27.0963 14.9998H16.6557L24.6797 12.0681C25.1715 11.9309 25.6956 12.0028 26.1365 12.268C26.5775 12.5333 26.8993 12.9701 27.031 13.4825"/>
</svg>
