<svg width="42" height="42" viewBox="0 0 42 42" fill="none" xmlns="http://www.w3.org/2000/svg">
<rect width="42" height="42" rx="21" fill="#F8F8F8"/>
<path d="M15.6667 13.5C14.9594 13.5 14.2811 13.795 13.781 14.3201C13.281 14.8452 13 15.5574 13 16.3V16.5814L21 21.1048L29 16.5828V16.3C29 15.5574 28.719 14.8452 28.219 14.3201C27.7189 13.795 27.0406 13.5 26.3333 13.5H15.6667ZM29 18.1718L21.316 22.516C21.2189 22.5709 21.1103 22.5996 21 22.5996C20.8897 22.5996 20.7811 22.5709 20.684 22.516L13 18.1718V24.7C13 25.4426 13.281 26.1548 13.781 26.6799C14.2811 27.205 14.9594 27.5 15.6667 27.5H26.3333C27.0406 27.5 27.7189 27.205 28.219 26.6799C28.719 26.1548 29 25.4426 29 24.7V18.1718Z" fill="black"/>
</svg>
