<svg width="32" height="32" viewBox="0 0 32 32" fill="none" xmlns="http://www.w3.org/2000/svg">
<rect width="32" height="32" rx="16" fill="#F8F8F8"/>
<path d="M8.75 10.666H23.25C23.4489 10.666 23.6397 10.7547 23.7803 10.9127C23.921 11.0706 24 11.2848 24 11.5081C24 11.7315 23.921 11.9457 23.7803 12.1036C23.6397 12.2615 23.4489 12.3502 23.25 12.3502H8.75C8.55109 12.3502 8.36032 12.2615 8.21967 12.1036C8.07902 11.9457 8 11.7315 8 11.5081C8 11.2848 8.07902 11.0706 8.21967 10.9127C8.36032 10.7547 8.55109 10.666 8.75 10.666ZM11 15.9993C11 15.776 11.079 15.5618 11.2197 15.4039C11.3603 15.246 11.5511 15.1572 11.75 15.1572H20.25C20.4489 15.1572 20.6397 15.246 20.7803 15.4039C20.921 15.5618 21 15.776 21 15.9993C21 16.2227 20.921 16.4369 20.7803 16.5948C20.6397 16.7527 20.4489 16.8415 20.25 16.8415H11.75C11.5511 16.8415 11.3603 16.7527 11.2197 16.5948C11.079 16.4369 11 16.2227 11 15.9993ZM14 20.4906C14 20.2672 14.079 20.053 14.2197 19.8951C14.3603 19.7372 14.5511 19.6485 14.75 19.6485H17.25C17.4489 19.6485 17.6397 19.7372 17.7803 19.8951C17.921 20.053 18 20.2672 18 20.4906C18 20.7139 17.921 20.9281 17.7803 21.086C17.6397 21.244 17.4489 21.3327 17.25 21.3327H14.75C14.5511 21.3327 14.3603 21.244 14.2197 21.086C14.079 20.9281 14 20.7139 14 20.4906Z" fill="#0A0A0A"/>
</svg>
