<svg width="32" height="33" viewBox="0 0 32 33" fill="none" xmlns="http://www.w3.org/2000/svg">
<path d="M11.9526 5.12059C13.2029 3.87035 14.8986 3.16797 16.6667 3.16797C18.4348 3.16797 20.1305 3.87035 21.3807 5.12059C22.631 6.37083 23.3333 8.06653 23.3333 9.83464C23.3333 11.6027 22.631 13.2984 21.3807 14.5487C20.1305 15.7989 18.4348 16.5013 16.6667 16.5013C14.8986 16.5013 13.2029 15.7989 11.9526 14.5487C10.7024 13.2984 10 11.6027 10 9.83464C10 8.06653 10.7024 6.37083 11.9526 5.12059Z" fill="#BFBFBF"/>
<path d="M7.23858 19.3967C9.73906 18.3965 13.1304 17.8346 16.6667 17.8346C20.2029 17.8346 23.5943 18.3965 26.0948 19.3967C28.5952 20.3969 29.3333 21.7535 29.3333 23.168C29.3333 24.5825 28.5952 25.939 26.0948 26.9392C23.5943 27.9394 20.2029 28.5013 16.6667 28.5013C13.1304 28.5013 9.73906 27.9394 7.23858 26.9392C4.73809 25.939 4 24.5825 4 23.168C4 21.7535 4.73809 20.3969 7.23858 19.3967Z" fill="#BFBFBF"/>
</svg>
