<svg width="42" height="42" viewBox="0 0 42 42" fill="none" xmlns="http://www.w3.org/2000/svg">
<!-- <rect width="42" height="42" rx="21" fill="#F8F8F8"/> -->
<path fill-rule="evenodd" clip-rule="evenodd" d="M21.2469 28.919L21.2486 28.9181L21.2529 28.915L21.2657 28.9048L21.3163 28.867C21.3597 28.8341 21.4211 28.7861 21.5006 28.723C21.6583 28.5977 21.882 28.4132 22.149 28.1763C22.8499 27.555 23.5053 26.8806 24.1097 26.1585C25.5274 24.458 27 22.0313 27 19.2561C27 17.5983 26.3683 16.0072 25.2437 14.8338C24.6879 14.253 24.0268 13.792 23.2985 13.4773C22.5702 13.1626 21.789 13.0004 21 13C20.211 13.0003 19.4299 13.1625 18.7016 13.4771C17.9732 13.7918 17.3121 14.2527 16.7563 14.8334C15.6307 16.0095 14.9994 17.5995 15 19.2566C15 22.0313 16.4726 24.458 17.8903 26.1585C18.4947 26.8806 19.1501 27.555 19.851 28.1763C20.1184 28.4132 20.3417 28.5977 20.4994 28.723C20.5768 28.7848 20.6549 28.8455 20.7339 28.9052L20.7476 28.915L20.7514 28.9181L20.7531 28.919C20.901 29.027 21.099 29.027 21.2469 28.919ZM23.1429 19.2224C23.1429 19.8117 22.9171 20.377 22.5152 20.7937C22.1134 21.2105 21.5683 21.4446 21 21.4446C20.4317 21.4446 19.8866 21.2105 19.4848 20.7937C19.0829 20.377 18.8571 19.8117 18.8571 19.2224C18.8571 18.633 19.0829 18.0677 19.4848 17.651C19.8866 17.2342 20.4317 17.0001 21 17.0001C21.5683 17.0001 22.1134 17.2342 22.5152 17.651C22.9171 18.0677 23.1429 18.633 23.1429 19.2224Z" />
<path fill-rule="evenodd" clip-rule="evenodd" d="M21.2469 28.919L21.2486 28.9181L21.2529 28.915L21.2657 28.9048L21.3163 28.867C21.3597 28.8341 21.4211 28.7861 21.5006 28.723C21.6583 28.5977 21.882 28.4132 22.149 28.1763C22.8499 27.555 23.5053 26.8806 24.1097 26.1585C25.5274 24.458 27 22.0313 27 19.2561C27 17.5983 26.3683 16.0072 25.2437 14.8338C24.6879 14.253 24.0268 13.792 23.2985 13.4773C22.5702 13.1626 21.789 13.0004 21 13C20.211 13.0003 19.4299 13.1625 18.7016 13.4771C17.9732 13.7918 17.3121 14.2527 16.7563 14.8334C15.6307 16.0095 14.9994 17.5995 15 19.2566C15 22.0313 16.4726 24.458 17.8903 26.1585C18.4947 26.8806 19.1501 27.555 19.851 28.1763C20.1184 28.4132 20.3417 28.5977 20.4994 28.723C20.5768 28.7848 20.6549 28.8455 20.7339 28.9052L20.7476 28.915L20.7514 28.9181L20.7531 28.919C20.901 29.027 21.099 29.027 21.2469 28.919ZM23.1429 19.2224C23.1429 19.8117 22.9171 20.377 22.5152 20.7937C22.1134 21.2105 21.5683 21.4446 21 21.4446C20.4317 21.4446 19.8866 21.2105 19.4848 20.7937C19.0829 20.377 18.8571 19.8117 18.8571 19.2224C18.8571 18.633 19.0829 18.0677 19.4848 17.651C19.8866 17.2342 20.4317 17.0001 21 17.0001C21.5683 17.0001 22.1134 17.2342 22.5152 17.651C22.9171 18.0677 23.1429 18.633 23.1429 19.2224Z"/>
</svg>
