<svg width="32" height="33" viewBox="0 0 32 33" fill="none" xmlns="http://www.w3.org/2000/svg">
<path d="M11.9526 4.69481C13.2029 3.44457 14.8986 2.74219 16.6667 2.74219C18.4348 2.74219 20.1305 3.44457 21.3807 4.69481C22.631 5.94505 23.3333 7.64074 23.3333 9.40885C23.3333 11.177 22.631 12.8727 21.3807 14.1229C20.1305 15.3731 18.4348 16.0755 16.6667 16.0755C14.8986 16.0755 13.2029 15.3731 11.9526 14.1229C10.7024 12.8727 10 11.177 10 9.40885C10 7.64074 10.7024 5.94505 11.9526 4.69481Z" fill="#BFBFBF"/>
<path d="M7.23858 18.971C9.73906 17.9708 13.1304 17.4089 16.6667 17.4089C20.2029 17.4089 23.5943 17.9708 26.0948 18.971C28.5952 19.9711 29.3333 21.3277 29.3333 22.7422C29.3333 24.1567 28.5952 25.5132 26.0948 26.5134C23.5943 27.5136 20.2029 28.0755 16.6667 28.0755C13.1304 28.0755 9.73906 27.5136 7.23858 26.5134C4.73809 25.5132 4 24.1567 4 22.7422C4 21.3277 4.73809 19.9711 7.23858 18.971Z" fill="#BFBFBF"/>
</svg>
