<svg width="42" height="42" viewBox="0 0 42 42" fill="none" xmlns="http://www.w3.org/2000/svg">
<rect width="42" height="42" rx="21" fill="#F8F8F8"/>
<path d="M18.8618 12C17.4873 11.9921 16.1491 13.443 16.76 15.2447H14.4545C14.0688 15.2447 13.6988 15.4127 13.426 15.7117C13.1532 16.0107 13 16.4162 13 16.8391V18.4335C13 18.6449 13.0766 18.8477 13.213 18.9972C13.3494 19.1467 13.5344 19.2307 13.7273 19.2307H20.2727V16.8391H21.7273V19.2307H28.2727C28.4656 19.2307 28.6506 19.1467 28.787 18.9972C28.9234 18.8477 29 18.6449 29 18.4335V16.8391C29 16.4162 28.8468 16.0107 28.574 15.7117C28.3012 15.4127 27.9312 15.2447 27.5455 15.2447H25.24C26.0909 12.6378 22.8909 10.7962 21.4145 13.0444L21 13.6503L20.5855 13.0284C20.1273 12.3189 19.4945 12.008 18.8618 12ZM18.8182 13.6503C19.4655 13.6503 19.7927 14.5112 19.3345 15.0135C18.8764 15.5157 18.0909 15.157 18.0909 14.4475C18.0909 14.236 18.1675 14.0333 18.3039 13.8838C18.4403 13.7342 18.6253 13.6503 18.8182 13.6503ZM23.1818 13.6503C23.8291 13.6503 24.1564 14.5112 23.6982 15.0135C23.24 15.5157 22.4545 15.157 22.4545 14.4475C22.4545 14.236 22.5312 14.0333 22.6676 13.8838C22.8039 13.7342 22.9889 13.6503 23.1818 13.6503ZM13.7273 20.0279V26.4056C13.7273 26.8284 13.8805 27.234 14.1533 27.533C14.4261 27.832 14.796 28 15.1818 28H26.8182C27.204 28 27.5739 27.832 27.8467 27.533C28.1195 27.234 28.2727 26.8284 28.2727 26.4056V20.0279H21.7273V26.4056H20.2727V20.0279H13.7273Z" fill="black"/>
</svg>
