<svg width="112" height="70" viewBox="0 0 112 70" fill="none" xmlns="http://www.w3.org/2000/svg">
<path fill-rule="evenodd" clip-rule="evenodd" d="M51.3729 2.35774L50.8662 2.81691C50.7894 2.86213 50.7019 2.88439 50.6135 2.88121L49.6616 2.62012C49.5995 2.62012 49.5374 2.55581 49.4716 2.49151L49.1549 1.90116C49.0928 1.77254 49.0928 1.63878 49.1549 1.57318L49.7883 0.655509C49.8504 0.526893 49.9783 0.458726 50.105 0.526893L51.1177 0.920458C51.2444 0.920458 51.3077 0.986052 51.3077 1.11724L51.4977 2.10051C51.4815 2.19713 51.4381 2.28663 51.3729 2.35774ZM56.3746 7.47218L56.4988 6.61945C56.497 6.49818 56.4529 6.38168 56.3746 6.29147L55.4252 5.83296C55.301 5.76865 55.1718 5.76865 55.1085 5.89726L54.3485 6.75128C54.2218 6.88247 54.2218 7.01366 54.3485 7.14485L54.9818 7.93198C54.9953 7.94547 55.0098 7.95773 55.0253 7.96863L55.0464 7.98278C55.0582 7.98921 55.07 7.99564 55.0831 8.00143C55.1169 8.01759 55.1539 8.02563 55.1912 8.02496C55.2285 8.02429 55.2652 8.01493 55.2985 7.99757L56.2479 7.73519C56.2489 7.71887 56.2545 7.70321 56.2641 7.69018C56.2738 7.67593 56.2841 7.6622 56.2951 7.64902C56.3195 7.62216 56.3404 7.59211 56.3572 7.55963C56.3693 7.53222 56.3753 7.50232 56.3746 7.47218ZM48.2707 8.91461L48.5874 8.12812C48.6395 8.02008 48.6054 7.95641 48.557 7.86445C48.547 7.8458 48.5365 7.82523 48.5259 7.80015L47.9559 7.1442C47.8938 7.01559 47.7659 7.01559 47.6392 7.07989L46.8165 7.47346C46.7583 7.50419 46.7096 7.55123 46.676 7.60922C46.6424 7.66721 46.6253 7.73382 46.6265 7.80143L46.8798 8.8503C46.8798 8.97892 47.004 9.04708 47.1331 9.04708H47.954C48.144 9.11139 48.2074 9.0458 48.2707 8.91461ZM54.0324 21.0457C53.9082 20.9814 53.7157 20.8489 53.6524 20.7177C52.9557 19.6682 52.0696 18.4882 50.8029 18.0946C50.5502 18.0303 49.8535 17.701 49.0935 17.1763C48.5874 16.8489 47.8907 16.3242 47.6373 15.9962C46.5613 14.5538 45.0418 13.7011 43.459 13.8329C43.269 13.8329 42.9523 14.0258 42.699 14.2258L42.6369 14.2901C42.5748 14.3544 42.5127 14.4187 42.5127 14.4869C42.5121 14.4751 42.5121 14.4633 42.5127 14.4515C42.514 14.4361 42.5167 14.4208 42.5208 14.4059L42.6369 14.2901C42.6081 14.2935 42.5799 14.3067 42.5591 14.3277C42.5384 14.3486 42.5249 14.3761 42.5208 14.4059C38.9373 18.0258 36.2189 21.8881 34.787 25.3061C31.1762 32.9794 35.5445 37.8314 43.1417 34.3562C46.5606 32.9138 50.5496 30.0939 54.1579 26.4219C54.4745 25.9633 54.7912 25.5042 54.9179 24.9794C55.2985 23.6682 55.2985 21.701 54.0324 21.0457ZM52.5124 24.9794C49.0307 28.4521 45.3585 31.0122 42.319 32.3234C34.6584 35.6031 34.4051 30.1595 37.444 24.6515C37.5682 24.3897 37.8873 24.3897 38.0773 24.5228C39.1534 25.5724 40.1035 26.7524 40.8629 28.5228C40.9025 28.6226 40.9756 28.7041 41.0687 28.7523C41.1619 28.8006 41.2688 28.8122 41.3696 28.7852L42.5723 28.2604C42.7623 28.1961 42.889 27.9331 42.8257 27.6707C41.8129 25.31 40.5462 23.802 39.1534 22.5557C38.9634 22.427 38.9634 22.1627 39.0913 21.966C39.6614 21.1132 40.2314 20.3267 40.9275 19.474C41.0516 19.3454 41.3075 19.2772 41.4341 19.3454C43.6503 20.6573 45.2964 22.818 46.3725 24.9846C46.4992 25.1814 46.6892 25.247 46.9425 25.1814L48.0819 24.591C48.2719 24.4624 48.3986 24.1981 48.2719 24.0013C47.0692 21.575 45.2331 19.2798 42.9536 17.7062C42.9046 17.6699 42.8637 17.6232 42.8335 17.5692C42.8034 17.5152 42.7848 17.4552 42.7789 17.3931C42.773 17.3311 42.78 17.2684 42.7994 17.2094C42.8189 17.1504 42.8502 17.0963 42.8915 17.0509C43.0498 16.8869 43.192 16.7229 43.3348 16.5589C43.4777 16.3949 43.6199 16.2309 43.7782 16.067C43.9024 15.9383 44.0309 15.9383 44.2209 15.9383C45.0635 16.2174 45.6367 16.8309 46.2173 17.4522C46.7283 17.9988 47.2455 18.5518 47.9559 18.8894C48.565 19.3621 49.0568 19.5621 49.5231 19.7518C50.0261 19.9563 50.4999 20.1492 51.0581 20.6599C51.2556 20.8862 51.4524 21.1602 51.6524 21.438C52.0299 21.9627 52.4167 22.5004 52.8321 22.7576C52.9588 22.8232 53.0221 22.9544 53.0221 23.1512C52.9557 24.0618 52.8905 24.4547 52.5124 24.9794ZM62.453 8.45545C68.9729 10.685 74.2925 12.9146 77.7114 17.9634C82.4597 28.5202 64.4785 27.0778 58.0841 24.8482C57.5147 24.7196 56.818 24.1929 56.628 23.6682C55.9313 22.2258 56.1213 20.2599 56.69 19.1435C56.8321 18.7433 57.0102 18.3579 57.2222 17.9923C57.3862 17.7118 57.5259 17.4168 57.6395 17.1107C57.8065 16.4856 57.822 15.7969 57.8382 15.0998C57.8717 13.6773 57.9052 12.222 59.2229 11.2098C59.3857 11.0493 59.5339 10.8736 59.6656 10.685C59.7476 10.5403 59.8302 10.386 59.914 10.2278C60.479 9.16669 61.1304 7.94227 62.453 8.45545ZM58.7808 22.8155C64.8585 24.3897 70.0502 25.1106 74.8631 23.0778C78.8521 20.7827 74.6104 16.9801 71.9509 15.0779C71.8916 15.0344 71.8221 15.0085 71.7496 15.0027C71.6772 14.997 71.6046 15.0118 71.5396 15.0455C71.4747 15.0792 71.4198 15.1305 71.3808 15.1939C71.3418 15.2574 71.3201 15.3307 71.3182 15.4059C71.2561 16.7834 71.3182 18.8142 71.5709 19.7994C71.5861 19.838 71.5932 19.8795 71.5916 19.9211C71.5901 19.9627 71.58 20.0035 71.562 20.0408C71.544 20.078 71.5186 20.1109 71.4873 20.1371C71.4561 20.1634 71.4198 20.1824 71.3809 20.193L70.0515 20.7171C69.8615 20.8457 69.6714 20.7171 69.6081 20.5203C69.0387 18.6194 69.102 15.865 69.2921 13.7679C69.3541 13.6393 69.23 13.44 69.102 13.375C68.1751 12.8863 67.2239 12.4484 66.2525 12.0631C66.1518 12.0361 66.045 12.0478 65.952 12.096C65.859 12.1443 65.7859 12.2258 65.7465 12.3255C64.8598 14.6863 64.8598 17.8335 65.3031 19.7351C65.3652 19.9319 65.241 20.1287 65.0498 20.1943L63.657 20.5878C63.467 20.6521 63.277 20.5235 63.2137 20.3255C62.6443 18.0303 62.6443 14.3583 63.5937 11.6046C63.6198 11.5002 63.6085 11.3895 63.562 11.2931C63.5154 11.1966 63.4367 11.1209 63.3403 11.0799C63.0237 10.9512 62.707 10.8831 62.3276 10.7519C62.2034 10.6876 61.9476 10.7519 61.8842 10.9487C61.8153 11.0773 61.7507 11.2098 61.6868 11.339C61.398 11.9223 61.1248 12.4741 60.5548 12.8503C60.1114 13.2438 59.9214 13.6368 59.9214 13.7679C59.8345 13.9486 59.8668 14.5306 59.896 15.0483C59.909 15.2837 59.9214 15.5056 59.9214 15.6695C59.7972 17.112 59.6681 17.8991 59.0987 18.8849C58.5293 19.8708 57.9586 20.9833 58.2753 22.2933C58.3053 22.4199 58.3683 22.5356 58.4574 22.6277C58.5466 22.7197 58.6584 22.7847 58.7808 22.8155Z" fill="black"/>
<path d="M1.30956 60.9366C1.66478 60.3777 1.98625 59.7965 2.27211 59.1962C2.63227 58.4803 2.92781 57.7313 3.15495 56.9588C3.43953 56.0385 3.6543 55.0965 3.79731 54.1414C3.96544 53.008 4.04608 51.8624 4.03844 50.7156V49.8328H12.8936V60.9366H15.1154V67.2904H12.7877V63.6161H2.32766V67.2904H0V60.9366H1.30956ZM10.4581 60.9366V52.5117H6.28507C6.23726 53.4586 6.12083 54.4004 5.93677 55.329C5.79363 56.1431 5.59713 56.946 5.34865 57.7322C5.15903 58.3834 4.92649 59.0203 4.6527 59.6383C4.46475 60.0844 4.25044 60.518 4.011 60.9366H10.4581Z" fill="black"/>
<path d="M25.5681 58.7271C25.3547 58.3401 24.9266 58.0546 24.2841 57.8708C23.6156 57.6639 22.9212 57.5614 22.2237 57.5666C21.2073 57.5666 20.4138 57.7325 19.8431 58.0644C19.2903 58.3767 19.0138 58.8278 19.0138 59.4177C19.0138 59.97 19.2813 60.4211 19.8163 60.771C20.3691 61.1024 21.1716 61.2681 22.2237 61.2681C22.5749 61.2689 22.9253 61.2321 23.2692 61.1581C23.6078 61.0898 23.9394 60.9879 24.2592 60.8539C24.5454 60.7349 24.8153 60.5771 25.0617 60.3847C25.2732 60.2247 25.4471 60.0169 25.5701 59.7769L25.5681 58.7271ZM17.3011 51.9041C17.8008 51.1856 18.4876 50.6055 19.3615 50.1637C20.2354 49.7218 21.2073 49.5007 22.2773 49.5002C24.0612 49.5002 25.4614 49.9792 26.4778 50.9371C27.4946 51.8764 28.003 53.2024 28.003 54.9149V63.6162H25.6505V62.4007C25.4716 62.6579 25.2439 62.8743 24.9813 63.0363C24.6752 63.2312 24.3531 63.3975 24.0188 63.5334C23.6705 63.6649 23.3125 63.7666 22.9484 63.8376C22.5778 63.9106 22.2015 63.9474 21.8244 63.9476C20.2374 63.9476 18.9622 63.561 17.999 62.7878C17.0536 61.996 16.581 60.891 16.581 59.4727C16.581 58.7543 16.7147 58.1189 16.9822 57.5666C17.2651 57.0175 17.6574 56.5374 18.133 56.1583C18.6353 55.7607 19.2079 55.4696 19.8183 55.3013C20.4956 55.0937 21.1987 54.9915 21.9048 54.9978C22.2274 54.9996 22.5495 55.0273 22.868 55.0806C23.2116 55.1148 23.5518 55.1795 23.8848 55.2742C24.208 55.3601 24.5218 55.4805 24.8212 55.6334C25.0957 55.7546 25.3488 55.9226 25.5701 56.1304V55.467C25.5701 54.8966 25.4721 54.4086 25.276 54.003C25.0975 53.605 24.8316 53.2561 24.4997 52.9844C24.1625 52.6981 23.7704 52.4898 23.3496 52.3733C22.9058 52.2426 22.4464 52.1777 21.9852 52.1804C21.181 52.1685 20.3848 52.3478 19.6575 52.7047C18.9605 53.055 18.4076 53.5154 17.999 54.0858L17.3011 51.9041Z" fill="black"/>
<path d="M44.2093 53.81C44.5835 54.6941 44.7708 55.6701 44.7712 56.738C44.7717 57.8059 44.5844 58.7819 44.2093 59.6661C43.8531 60.5216 43.3445 61.2994 42.7102 61.9585C41.4171 63.2328 39.7037 63.9445 37.9216 63.9474C36.9048 63.9474 36.0309 63.7725 35.2999 63.4225C34.5689 63.0726 34.0962 62.6401 33.8818 62.1249V69.5H31.447V49.8321H33.7995V51.2961C34.0134 50.7801 34.4861 50.3566 35.2175 50.0257C35.9664 49.6753 36.8492 49.5001 37.866 49.5001C38.7732 49.4961 39.6726 49.6745 40.5145 50.0257C41.3356 50.3642 42.0819 50.8724 42.7082 51.5196C43.3507 52.1713 43.861 52.9501 44.2093 53.81ZM42.3364 56.6823C42.3364 55.3012 41.9263 54.2056 41.1059 53.3958C40.2856 52.5859 39.1976 52.1807 37.8419 52.1803C36.962 52.1676 36.0944 52.3962 35.3267 52.843C34.5956 53.2667 34.1142 53.81 33.8825 54.4727V58.9755C34.1138 59.6382 34.5952 60.1907 35.3267 60.633C36.076 61.0567 36.9144 61.2684 37.8419 61.2679C39.1972 61.2679 40.2852 60.8537 41.1059 60.0253C41.9267 59.1968 42.3369 58.0825 42.3364 56.6823Z" fill="black"/>
<path d="M49.8784 49.8325V59.475L56.9947 49.8325H59.4296V63.6171H56.9947V53.9747L49.8784 63.6171H47.4443V49.8325H49.8784Z" fill="black"/>
<path d="M75.5881 61.2681C76.0122 61.2687 76.4347 61.213 76.8453 61.1024C77.2392 60.998 77.6239 60.8594 77.9954 60.6882C78.3463 60.5362 78.6787 60.3416 78.9854 60.1083C79.2442 59.9106 79.4848 59.6885 79.7043 59.4449L80.3466 61.4066C80.1808 61.7515 79.9537 62.0606 79.6774 62.3179C79.3565 62.6407 78.997 62.9193 78.6077 63.147C78.1604 63.4014 77.6839 63.5963 77.1897 63.7269C76.6217 63.8784 76.0372 63.9526 75.4508 63.9476C74.5021 63.9567 73.5596 63.7884 72.6683 63.4505C71.8571 63.1187 71.113 62.6315 70.4746 62.0144C69.8538 61.3658 69.3627 60.5959 69.0298 59.7491C68.6905 58.8469 68.521 57.8432 68.5214 56.7382C68.5181 55.8056 68.6729 54.8797 68.9789 54.003C69.266 53.1481 69.7113 52.3599 70.2897 51.6827C70.8652 51.0163 71.5665 50.4803 72.3501 50.108C73.1526 49.7033 74.0622 49.5007 75.079 49.5002C76.0422 49.5002 76.9072 49.6938 77.6739 50.0808C78.4257 50.4549 79.0917 50.9918 79.6271 51.6555C80.1924 52.3225 80.6202 53.1027 80.8844 53.948C81.1733 54.8378 81.3179 55.7713 81.3124 56.7103C81.3107 57.0252 81.2839 57.3393 81.2321 57.6495H71.0131C71.1377 58.865 71.6104 59.7767 72.4311 60.3847C73.2515 60.9736 74.3038 61.2681 75.5881 61.2681ZM78.7182 55.1085C78.6842 54.7088 78.5652 54.3219 78.3699 53.9758C78.1723 53.6051 77.8982 53.2845 77.5674 53.0367C77.2346 52.7535 76.8536 52.5379 76.4441 52.4011C76.0036 52.2519 75.5429 52.1774 75.0797 52.1804C74.599 52.1801 74.1211 52.2545 73.6616 52.4011C73.233 52.5395 72.8269 52.7444 72.4573 53.0089C72.1198 53.2657 71.8297 53.5839 71.6012 53.948C71.3712 54.2936 71.2244 54.6916 71.1732 55.1085H78.7182Z" fill="black"/>
<path d="M83.9122 60.9366C84.2677 60.3778 84.5894 59.7965 84.8754 59.1962C85.2353 58.4802 85.5308 57.7312 85.7583 56.9588C86.0426 56.0385 86.2572 55.0965 86.4 54.1414C86.5681 53.008 86.6487 51.8624 86.6411 50.7156V49.8329H95.4963V60.9366H97.7181V67.2904H95.3911V63.6161H84.929V67.2904H82.6014V60.9366H83.9122ZM93.0608 60.9366V52.5117H88.8871C88.8395 53.4586 88.7233 54.4003 88.5394 55.3291C88.3963 56.1431 88.1998 56.946 87.9513 57.7322C87.7622 58.3835 87.5299 59.0204 87.256 59.6383C87.0679 60.0844 86.8534 60.518 86.6137 60.9366H93.0608Z" fill="black"/>
<path d="M98.4091 49.832H101.138L105.231 59.9695L109.298 49.832H112L104.054 69.4999H101.352L103.92 63.0911L98.4091 49.832Z" fill="black"/>
</svg>
