<svg width="46" height="35" viewBox="0 0 46 35" fill="none" xmlns="http://www.w3.org/2000/svg">
<path fill-rule="evenodd" clip-rule="evenodd" d="M18.3729 1.85774L17.8662 2.31691C17.7894 2.36213 17.7019 2.38439 17.6135 2.38121L16.6616 2.12012C16.5995 2.12012 16.5374 2.05581 16.4716 1.99151L16.1549 1.40116C16.0928 1.27254 16.0928 1.13878 16.1549 1.07318L16.7883 0.155509C16.8504 0.0268926 16.9783 -0.0412741 17.105 0.0268926L18.1177 0.420458C18.2444 0.420458 18.3077 0.486052 18.3077 0.617241L18.4977 1.60051C18.4815 1.69713 18.4381 1.78663 18.3729 1.85774ZM23.3746 6.97218L23.4988 6.11945C23.497 5.99818 23.4529 5.88168 23.3746 5.79147L22.4252 5.33296C22.301 5.26865 22.1718 5.26865 22.1085 5.39726L21.3485 6.25128C21.2218 6.38247 21.2218 6.51366 21.3485 6.64485L21.9818 7.43198C21.9953 7.44547 22.0098 7.45773 22.0253 7.46863L22.0464 7.48278C22.0582 7.48921 22.07 7.49564 22.0831 7.50143C22.1169 7.51759 22.1539 7.52563 22.1912 7.52496C22.2285 7.52429 22.2652 7.51493 22.2985 7.49757L23.2479 7.23519C23.2489 7.21887 23.2545 7.20321 23.2641 7.19018C23.2738 7.17593 23.2841 7.1622 23.2951 7.14902C23.3195 7.12216 23.3404 7.09211 23.3572 7.05963C23.3693 7.03222 23.3753 7.00232 23.3746 6.97218ZM15.2707 8.41461L15.5874 7.62812C15.6395 7.52008 15.6054 7.45641 15.557 7.36445C15.547 7.3458 15.5365 7.32523 15.5259 7.30015L14.9559 6.6442C14.8938 6.51559 14.7659 6.51559 14.6392 6.57989L13.8165 6.97346C13.7583 7.00419 13.7096 7.05123 13.676 7.10922C13.6424 7.16721 13.6253 7.23382 13.6265 7.30143L13.8798 8.3503C13.8798 8.47892 14.004 8.54708 14.1331 8.54708H14.954C15.144 8.61139 15.2074 8.5458 15.2707 8.41461ZM21.0324 20.5457C20.9082 20.4814 20.7157 20.3489 20.6524 20.2177C19.9557 19.1682 19.0696 17.9882 17.8029 17.5946C17.5502 17.5303 16.8535 17.201 16.0935 16.6763C15.5874 16.3489 14.8907 15.8242 14.6373 15.4962C13.5613 14.0538 12.0418 13.2011 10.459 13.3329C10.269 13.3329 9.95234 13.5258 9.699 13.7258L9.6369 13.7901C9.57481 13.8544 9.51271 13.9187 9.51271 13.9869C9.51206 13.9751 9.51206 13.9633 9.51271 13.9515C9.51398 13.9361 9.51668 13.9208 9.52079 13.9059L9.6369 13.7901C9.60808 13.7935 9.57993 13.8067 9.55914 13.8277C9.53835 13.8486 9.52486 13.8761 9.52079 13.9059C5.93733 17.5258 3.21885 21.3881 1.78696 24.8061C-1.82381 32.4794 2.54451 37.3314 10.1417 33.8562C13.5606 32.4138 17.5496 29.5939 21.1579 25.9219C21.4745 25.4633 21.7912 25.0042 21.9179 24.4794C22.2985 23.1682 22.2985 21.201 21.0324 20.5457ZM19.5124 24.4794C16.0307 27.9521 12.3585 30.5122 9.31898 31.8234C1.65843 35.1031 1.40508 29.6595 4.44397 24.1515C4.56816 23.8897 4.88732 23.8897 5.07733 24.0228C6.15342 25.0724 7.10346 26.2524 7.86287 28.0228C7.90246 28.1226 7.97559 28.2041 8.06874 28.2523C8.16188 28.3006 8.26875 28.3122 8.36956 28.2852L9.57233 27.7604C9.76233 27.6961 9.889 27.4331 9.82567 27.1707C8.81291 24.81 7.54619 23.302 6.15342 22.0557C5.96341 21.927 5.96341 21.6627 6.09133 21.466C6.66135 20.6132 7.23138 19.8267 7.92745 18.974C8.05164 18.8454 8.30747 18.7772 8.43414 18.8454C10.6503 20.1573 12.2964 22.318 13.3725 24.4846C13.4992 24.6814 13.6892 24.747 13.9425 24.6814L15.0819 24.091C15.2719 23.9624 15.3986 23.6981 15.2719 23.5013C14.0692 21.075 12.2331 18.7798 9.95358 17.2062C9.90459 17.1699 9.86366 17.1232 9.83353 17.0692C9.8034 17.0152 9.78478 16.9552 9.7789 16.8931C9.77301 16.8311 9.78002 16.7684 9.79944 16.7094C9.81886 16.6504 9.85024 16.5963 9.89149 16.5509C10.0498 16.3869 10.192 16.2229 10.3348 16.0589C10.4777 15.8949 10.6199 15.7309 10.7782 15.567C10.9024 15.4383 11.0309 15.4383 11.2209 15.4383C12.0635 15.7174 12.6367 16.3309 13.2173 16.9522C13.7283 17.4988 14.2455 18.0518 14.9559 18.3894C15.565 18.8621 16.0568 19.0621 16.5231 19.2518C17.0261 19.4563 17.4999 19.6492 18.0581 20.1599C18.2556 20.3862 18.4524 20.6602 18.6524 20.938C19.0299 21.4627 19.4167 22.0004 19.8321 22.2576C19.9588 22.3232 20.0221 22.4544 20.0221 22.6512C19.9557 23.5618 19.8905 23.9547 19.5124 24.4794ZM29.453 7.95545C35.9729 10.185 41.2925 12.4146 44.7114 17.4634C49.4597 28.0202 31.4785 26.5778 25.0841 24.3482C24.5147 24.2196 23.818 23.6929 23.628 23.1682C22.9313 21.7258 23.1213 19.7599 23.69 18.6435C23.8321 18.2433 24.0102 17.8579 24.2222 17.4923C24.3862 17.2118 24.5259 16.9168 24.6395 16.6107C24.8065 15.9856 24.822 15.2969 24.8382 14.5998C24.8717 13.1773 24.9052 11.722 26.2229 10.7098C26.3857 10.5493 26.5339 10.3736 26.6656 10.185C26.7476 10.0403 26.8302 9.88598 26.914 9.72778C27.479 8.66669 28.1304 7.44227 29.453 7.95545ZM25.7808 22.3155C31.8585 23.8897 37.0502 24.6106 41.8631 22.5778C45.8521 20.2827 41.6104 16.4801 38.9509 14.5779C38.8916 14.5344 38.8221 14.5085 38.7496 14.5027C38.6772 14.497 38.6046 14.5118 38.5396 14.5455C38.4747 14.5792 38.4198 14.6305 38.3808 14.6939C38.3418 14.7574 38.3201 14.8307 38.3182 14.9059C38.2561 16.2834 38.3182 18.3142 38.5709 19.2994C38.5861 19.338 38.5932 19.3795 38.5916 19.4211C38.5901 19.4627 38.58 19.5035 38.562 19.5408C38.544 19.578 38.5186 19.6109 38.4873 19.6371C38.4561 19.6634 38.4198 19.6824 38.3809 19.693L37.0515 20.2171C36.8615 20.3457 36.6714 20.2171 36.6081 20.0203C36.0387 18.1194 36.102 15.365 36.2921 13.2679C36.3541 13.1393 36.23 12.94 36.102 12.875C35.1751 12.3863 34.2239 11.9484 33.2525 11.5631C33.1518 11.5361 33.045 11.5478 32.952 11.596C32.859 11.6443 32.7859 11.7258 32.7465 11.8255C31.8598 14.1863 31.8598 17.3335 32.3031 19.2351C32.3652 19.4319 32.241 19.6287 32.0498 19.6943L30.657 20.0878C30.467 20.1521 30.277 20.0235 30.2137 19.8255C29.6443 17.5303 29.6443 13.8583 30.5937 11.1046C30.6198 11.0002 30.6085 10.8895 30.562 10.7931C30.5154 10.6966 30.4367 10.6209 30.3403 10.5799C30.0237 10.4512 29.707 10.3831 29.3276 10.2519C29.2034 10.1876 28.9476 10.2519 28.8842 10.4487C28.8153 10.5773 28.7507 10.7098 28.6868 10.839C28.398 11.4223 28.1248 11.9741 27.5548 12.3503C27.1114 12.7438 26.9214 13.1368 26.9214 13.2679C26.8345 13.4486 26.8668 14.0306 26.896 14.5483C26.909 14.7837 26.9214 15.0056 26.9214 15.1695C26.7972 16.612 26.6681 17.3991 26.0987 18.3849C25.5293 19.3708 24.9586 20.4833 25.2753 21.7933C25.3053 21.9199 25.3683 22.0356 25.4574 22.1277C25.5466 22.2197 25.6584 22.2847 25.7808 22.3155Z" fill="black"/>
</svg>
