<svg width="40" height="40" viewBox="0 0 40 40" fill="none" xmlns="http://www.w3.org/2000/svg">
<rect width="40" height="40" rx="20" fill="#F8F8F8"/>
<path d="M20 10C18.2047 10 16.4829 10.734 15.2134 12.0405C13.944 13.347 13.2308 15.119 13.2308 16.9667V22.6667H12V23.9333H28V22.6667H26.7692V16.9667C26.7692 15.119 26.056 13.347 24.7866 12.0405C23.5171 10.734 21.7953 10 20 10ZM16.9231 25.8333V25.2H23.0769V25.8333C23.0769 26.6732 22.7527 27.4786 22.1757 28.0725C21.5987 28.6664 20.8161 29 20 29C19.1839 29 18.4013 28.6664 17.8243 28.0725C17.2473 27.4786 16.9231 26.6732 16.9231 25.8333Z" fill="#0A0A0A"/>
<circle cx="26.5" cy="12.5" r="2.5" fill="#38AB78"/>
</svg>
