<svg width="32" height="32" viewBox="0 0 32 32" fill="none" xmlns="http://www.w3.org/2000/svg">
<!-- <rect width="32" height="32" rx="16" fill="white"/> -->
<path d="M15.6201 22.6138C15.5648 22.8241 15.5233 23.0371 15.4956 23.2529C15.4679 23.4688 15.4486 23.6901 15.4375 23.917C14.7292 23.834 14.054 23.668 13.4121 23.4189C12.7702 23.1699 12.1753 22.8517 11.6274 22.4644C11.0796 22.077 10.5815 21.6287 10.1333 21.1196C9.68506 20.6105 9.30322 20.0571 8.98779 19.4595C8.67236 18.8618 8.42887 18.231 8.25732 17.5669C8.08577 16.9028 8 16.2139 8 15.5C8 14.7197 8.09961 13.9671 8.29883 13.2422C8.49805 12.5173 8.78304 11.8394 9.15381 11.2085C9.52458 10.5776 9.96729 10.0049 10.4819 9.49023C10.9966 8.97559 11.5721 8.53288 12.2085 8.16211C12.8449 7.79134 13.52 7.50635 14.2339 7.30713C14.9478 7.10791 15.7031 7.00553 16.5 7C17.2803 7 18.0301 7.09961 18.7495 7.29883C19.4689 7.49805 20.1468 7.78581 20.7832 8.16211C21.4196 8.53841 21.9924 8.98112 22.5015 9.49023C23.0106 9.99935 23.4561 10.5749 23.8379 11.2168C24.2197 11.8587 24.5047 12.5339 24.6929 13.2422C24.881 13.9505 24.9834 14.7031 25 15.5H24.4106C24.3332 15.3727 24.2529 15.2482 24.1699 15.1265C24.0869 15.0047 23.9901 14.8885 23.8794 14.7778C23.8462 14.2964 23.7604 13.8288 23.6221 13.375H13.4536C13.4093 13.7292 13.3761 14.0806 13.354 14.4292C13.3319 14.7778 13.318 15.1348 13.3125 15.5C13.3125 15.8597 13.3236 16.2139 13.3457 16.5625C13.3678 16.9111 13.4038 17.2653 13.4536 17.625H16.5C16.5 17.8021 16.5138 17.9792 16.5415 18.1562C16.5692 18.3333 16.6051 18.5104 16.6494 18.6875H13.6362C13.7026 19.0029 13.7912 19.3488 13.9019 19.7251C14.0125 20.1014 14.1509 20.4694 14.3169 20.8291C14.4829 21.1888 14.6738 21.5264 14.8896 21.8418C15.1055 22.1572 15.349 22.4146 15.6201 22.6138ZM23.2153 12.3125C22.9995 11.8643 22.745 11.4437 22.4517 11.0508C22.1584 10.6579 21.8263 10.2982 21.4556 9.97168C21.0848 9.64518 20.6919 9.35466 20.2769 9.1001C19.8618 8.84554 19.4136 8.63802 18.9321 8.47754C19.1313 8.75423 19.3084 9.04753 19.4634 9.35742C19.6183 9.66732 19.7594 9.98551 19.8867 10.312C20.014 10.6385 20.1219 10.9705 20.2104 11.3081C20.299 11.6457 20.3765 11.9805 20.4429 12.3125H23.2153ZM16.5 8.0625C16.2233 8.0625 15.9688 8.13721 15.7363 8.28662C15.5039 8.43604 15.2881 8.63249 15.0889 8.87598C14.8896 9.11947 14.7126 9.39339 14.5576 9.69775C14.4027 10.0021 14.2616 10.3148 14.1343 10.6357C14.007 10.9567 13.9046 11.2611 13.8271 11.5488C13.7497 11.8366 13.686 12.0911 13.6362 12.3125H19.3638C19.3195 12.0967 19.2559 11.8421 19.1729 11.5488C19.0898 11.2555 18.9875 10.9512 18.8657 10.6357C18.744 10.3203 18.6056 10.0104 18.4507 9.70605C18.2957 9.40169 18.1187 9.125 17.9194 8.87598C17.7202 8.62695 17.5016 8.4305 17.2637 8.28662C17.0257 8.14274 16.7712 8.06803 16.5 8.0625ZM14.0762 8.46924C13.6058 8.62972 13.1576 8.83447 12.7314 9.0835C12.3053 9.33252 11.9097 9.62305 11.5444 9.95508C11.1792 10.2871 10.8472 10.6496 10.5483 11.0425C10.2495 11.4354 9.99495 11.8587 9.78467 12.3125H12.5571C12.618 12.0081 12.6927 11.6844 12.7812 11.3413C12.8698 10.9982 12.9805 10.6551 13.1133 10.312C13.2461 9.96891 13.39 9.63965 13.5449 9.32422C13.6999 9.00879 13.877 8.7238 14.0762 8.46924ZM9.0625 15.5C9.0625 16.236 9.16488 16.9443 9.36963 17.625H12.3828C12.3385 17.2708 12.3053 16.9194 12.2832 16.5708C12.2611 16.2222 12.25 15.8652 12.25 15.5C12.25 15.1403 12.2611 14.7861 12.2832 14.4375C12.3053 14.0889 12.3385 13.7347 12.3828 13.375H9.36963C9.16488 14.0557 9.0625 14.764 9.0625 15.5ZM9.76807 18.6875C9.98389 19.1357 10.2384 19.5563 10.5317 19.9492C10.825 20.3421 11.1571 20.7046 11.5278 21.0366C11.8986 21.3687 12.297 21.6564 12.7231 21.8999C13.1493 22.1434 13.5975 22.3509 14.0679 22.5225C13.8687 22.2458 13.6916 21.9525 13.5366 21.6426C13.3817 21.3327 13.2406 21.0145 13.1133 20.688C12.986 20.3615 12.8781 20.0295 12.7896 19.6919C12.701 19.3543 12.6208 19.0195 12.5488 18.6875H9.76807Z" />
<path d="M18.9148 15.1319C19.3525 14.6577 19.9462 14.3913 20.5652 14.3913C21.1843 14.3913 21.7779 14.6577 22.2157 15.1319C22.6534 15.6061 22.8993 16.2493 22.8993 16.9199C22.8993 17.5905 22.6534 18.2337 22.2157 18.7079C21.7779 19.1821 21.1843 19.4485 20.5652 19.4485C19.9462 19.4485 19.3525 19.1821 18.9148 18.7079C18.477 18.2337 18.2311 17.5905 18.2311 16.9199C18.2311 16.2493 18.477 15.6061 18.9148 15.1319Z"/>
<path d="M17.2643 20.5467C18.1398 20.1674 19.3271 19.9542 20.5652 19.9542C21.8033 19.9542 22.9907 20.1674 23.8661 20.5467C24.7416 20.9261 25 21.4406 25 21.9771C25 22.5136 24.7416 23.0281 23.8661 23.4075C22.9907 23.7869 21.8033 24 20.5652 24C19.3271 24 18.1398 23.7869 17.2643 23.4075C16.3889 23.0281 16.1304 22.5136 16.1304 21.9771C16.1304 21.4406 16.3889 20.9261 17.2643 20.5467Z" />
</svg>
