<svg width="42" height="42" viewBox="0 0 42 42" fill="none" xmlns="http://www.w3.org/2000/svg">
<rect width="42" height="42" rx="21" fill="#F8F8F8"/>
<path fill-rule="evenodd" clip-rule="evenodd" d="M26.7996 14.6648C26.3738 14.2391 25.7963 14 25.1942 14C24.592 14 24.0145 14.2391 23.5887 14.6648L23.0535 15.2007L26.8004 18.9475L27.3348 18.4123C27.5457 18.2015 27.713 17.9511 27.8271 17.6756C27.9412 17.4001 28 17.1048 28 16.8065C28 16.5083 27.9412 16.213 27.8271 15.9375C27.713 15.6619 27.5457 15.4116 27.3348 15.2007L26.7996 14.6648ZM25.7293 20.0177L21.9825 16.271L15.102 23.1521C14.9514 23.3027 14.8462 23.4926 14.7984 23.7001L14.0196 27.0722C13.9905 27.1973 13.9939 27.3278 14.0292 27.4514C14.0646 27.5749 14.1308 27.6874 14.2217 27.7783C14.3126 27.8692 14.4251 27.9354 14.5486 27.9708C14.6722 28.0061 14.8027 28.0095 14.9279 27.9804L18.3008 27.2023C18.508 27.1544 18.6976 27.0493 18.848 26.8988L25.7293 20.0177Z" fill="#0A0A0A"/>
</svg>
