<svg width="42" height="42" viewBox="0 0 42 42" fill="none" xmlns="http://www.w3.org/2000/svg">
<rect width="42" height="42" rx="21" fill="#F8F8F8"/>
<path d="M28.9982 25.679C28.8978 26.1125 28.6608 26.502 28.3225 26.7896C27.9447 27.1753 27.4939 27.4811 26.9965 27.689C26.4992 27.8968 25.9654 28.0026 25.4266 28H25.1572C24.039 27.9414 22.9429 27.6637 21.931 27.1825C21.6857 27.0669 21.4471 26.9589 21.1634 26.8274C19.9774 26.155 18.8888 25.3224 17.9281 24.3531C16.6793 23.1773 15.6559 21.7814 14.9089 20.2348C14.4976 19.3911 14.2206 18.4879 14.0878 17.558C13.9024 16.5891 14.012 15.5865 14.4024 14.681C14.6452 14.2699 14.9424 13.8938 15.2859 13.5629C15.4428 13.391 15.6325 13.2527 15.8438 13.156C16.055 13.0593 16.2835 13.0062 16.5156 13C16.7687 13.0269 17.0139 13.1042 17.2368 13.2274C17.4597 13.3507 17.6559 13.5174 17.8137 13.7177C18.1674 14.1106 18.5814 14.4884 18.9576 14.8888L19.4423 15.3678C19.7283 15.6194 19.9051 15.9737 19.9337 16.3545C19.9345 16.705 19.8058 17.0427 19.5725 17.3034C19.4256 17.4862 19.2693 17.6612 19.1044 17.8277L18.9426 17.9977C18.8484 18.0856 18.7748 18.1935 18.7274 18.3135C18.6882 18.4299 18.6747 18.5538 18.6897 18.6762C18.8131 19.0116 19.0066 19.3168 19.2579 19.5707C19.6492 20.1026 20.0255 20.5657 20.4484 21.1135C21.1779 21.9584 22.0427 22.6751 23.0071 23.2342C23.0997 23.3097 23.2103 23.3603 23.3292 23.3807C23.4346 23.3966 23.5407 23.3807 23.6363 23.3339C23.9293 23.1764 24.19 22.9647 24.4046 22.7099C24.6756 22.3744 25.0684 22.1613 25.4958 22.1153C25.701 22.116 25.904 22.1581 26.0927 22.2389C26.2814 22.3198 26.4521 22.4378 26.5946 22.5859C26.7702 22.7381 26.9365 22.9 27.0935 23.0717L27.3238 23.3188L27.5624 23.55C27.7076 23.6966 27.8461 23.828 27.9838 23.9821C28.2347 24.1987 28.4679 24.4327 28.6837 24.684C28.9042 24.9666 29.0156 25.3201 28.9982 25.679Z" fill="black"/>
</svg>
