<svg width="42" height="42" viewBox="0 0 42 42" fill="none" xmlns="http://www.w3.org/2000/svg">
<rect width="42" height="42" rx="21" fill="#F8F8F8"/>
<g clip-path="url(#clip0_1611_28377)">
<path fill-rule="evenodd" clip-rule="evenodd" d="M13.1797 20.1797C13.1797 15.7614 16.7614 12.1797 21.1797 12.1797C25.598 12.1797 29.1797 15.7614 29.1797 20.1797C29.1797 24.598 25.598 28.1797 21.1797 28.1797C16.7614 28.1797 13.1797 24.598 13.1797 20.1797ZM19.9478 16.9076C19.6914 17.1251 19.5053 17.4567 19.5053 17.9471C19.5053 18.2554 19.2554 18.5053 18.9471 18.5053C18.6388 18.5053 18.389 18.2554 18.389 17.9471C18.389 17.1352 18.7144 16.4901 19.2255 16.0564C19.7245 15.6331 20.37 15.4355 20.9936 15.4355C21.6174 15.4355 22.2627 15.6331 22.7617 16.0564C23.2727 16.4901 23.5983 17.1352 23.5983 17.9471C23.5983 18.5171 23.4523 18.9514 23.2138 19.3091C23.0135 19.6096 22.7531 19.842 22.5483 20.0248L22.5464 20.0264C22.5247 20.0458 22.5036 20.0647 22.4833 20.083C22.2547 20.2886 22.0823 20.4583 21.9561 20.6813C21.8353 20.8948 21.7378 21.193 21.7378 21.668C21.7378 21.9763 21.4879 22.2261 21.1797 22.2261C20.8715 22.2261 20.6215 21.9763 20.6215 21.668C20.6215 21.0268 20.7566 20.5343 20.9846 20.1315C21.2072 19.7383 21.5 19.466 21.7366 19.2532L21.7902 19.2049C22.0136 19.0042 22.1676 18.8659 22.285 18.6898C22.3954 18.5242 22.482 18.3074 22.482 17.9471C22.482 17.4567 22.2959 17.1251 22.0395 16.9076C21.771 16.6798 21.3931 16.5518 20.9936 16.5518C20.594 16.5518 20.2163 16.6798 19.9478 16.9076ZM21.602 25.0175C21.8082 24.7883 21.7896 24.4355 21.5605 24.2292C21.3313 24.023 20.9785 24.0415 20.7723 24.2707L20.7648 24.2789C20.5586 24.5081 20.5772 24.861 20.8064 25.0672C21.0355 25.2734 21.3883 25.2548 21.5946 25.0257L21.602 25.0175Z" fill="black"/>
</g>
<defs>
<clipPath id="clip0_1611_28377">
<rect width="18" height="18" fill="white" transform="translate(13 10)"/>
</clipPath>
</defs>
</svg>
