<svg width="24" height="24" viewBox="0 0 24 24" fill="none" xmlns="http://www.w3.org/2000/svg">
<path d="M1.91016 9.44629C1.91016 8.5332 2.08171 7.67822 2.4248 6.88135C2.7679 6.07894 3.24382 5.37337 3.85254 4.76465C4.46126 4.15592 5.16406 3.68001 5.96094 3.33691C6.76335 2.99382 7.62109 2.82227 8.53418 2.82227C9.44727 2.82227 10.3022 2.99382 11.0991 3.33691C11.9015 3.68001 12.6071 4.15592 13.2158 4.76465C13.8245 5.37337 14.3005 6.07894 14.6436 6.88135C14.9867 7.67822 15.1582 8.5332 15.1582 9.44629C15.1582 10.2044 15.0365 10.9238 14.793 11.6045C14.555 12.2852 14.223 12.9022 13.7969 13.4556L17.856 17.5396C17.9445 17.6281 18.0109 17.7305 18.0552 17.8467C18.105 17.9629 18.1299 18.0874 18.1299 18.2202C18.1299 18.4028 18.0884 18.5688 18.0054 18.7183C17.9279 18.8677 17.8172 18.9839 17.6733 19.0669C17.5295 19.1554 17.3634 19.1997 17.1753 19.1997C17.0425 19.1997 16.9152 19.1748 16.7935 19.125C16.6772 19.0807 16.5693 19.0116 16.4697 18.9175L12.3857 14.8252C11.8434 15.2126 11.2458 15.5169 10.5928 15.7383C9.93978 15.9596 9.25358 16.0703 8.53418 16.0703C7.62109 16.0703 6.76335 15.8988 5.96094 15.5557C5.16406 15.2126 4.46126 14.7367 3.85254 14.1279C3.24382 13.5192 2.7679 12.8164 2.4248 12.0195C2.08171 11.2171 1.91016 10.3594 1.91016 9.44629ZM3.32959 9.44629C3.32959 10.1657 3.4624 10.8408 3.72803 11.4717C3.99919 12.097 4.37272 12.6476 4.84863 13.1235C5.33008 13.5994 5.88346 13.973 6.50879 14.2441C7.13965 14.5153 7.81478 14.6509 8.53418 14.6509C9.25358 14.6509 9.92594 14.5153 10.5513 14.2441C11.1821 13.973 11.7355 13.5994 12.2114 13.1235C12.6873 12.6476 13.0609 12.097 13.332 11.4717C13.6032 10.8408 13.7388 10.1657 13.7388 9.44629C13.7388 8.72689 13.6032 8.05452 13.332 7.4292C13.0609 6.79834 12.6873 6.24495 12.2114 5.76904C11.7355 5.2876 11.1821 4.91406 10.5513 4.64844C9.92594 4.37728 9.25358 4.2417 8.53418 4.2417C7.81478 4.2417 7.13965 4.37728 6.50879 4.64844C5.88346 4.91406 5.33008 5.2876 4.84863 5.76904C4.37272 6.24495 3.99919 6.79834 3.72803 7.4292C3.4624 8.05452 3.32959 8.72689 3.32959 9.44629Z" fill="#BFBFBF"/>
</svg>
