<svg width="32" height="32" viewBox="0 0 32 32" fill="none" xmlns="http://www.w3.org/2000/svg">
<rect width="32" height="32" rx="16" fill="#F8F8F8"/>
<path d="M23.6937 20.5603C23.5999 20.9649 23.3787 21.3284 23.0629 21.5969C22.7104 21.9568 22.2896 22.2422 21.8254 22.4363C21.3612 22.6303 20.863 22.729 20.3602 22.7265H20.1087C19.065 22.6719 18.0421 22.4127 17.0976 21.9636C16.8686 21.8557 16.6459 21.7548 16.3811 21.6321C15.2742 21.0045 14.2582 20.2275 13.3616 19.3228C12.196 18.2253 11.2409 16.9225 10.5436 15.479C10.1597 14.6916 9.90116 13.8486 9.7773 12.9807C9.60425 12.0764 9.70656 11.1406 10.0709 10.2955C10.2975 9.91183 10.5749 9.56076 10.8955 9.2519C11.0419 9.09153 11.219 8.96238 11.4162 8.87213C11.6133 8.78188 11.8266 8.73237 12.0432 8.72656C12.2794 8.75163 12.5082 8.82379 12.7163 8.93883C12.9244 9.05386 13.1074 9.20944 13.2548 9.39645C13.5849 9.76313 13.9712 10.1157 14.3224 10.4894L14.7748 10.9365C15.0417 11.1713 15.2067 11.502 15.2334 11.8574C15.2341 12.1846 15.114 12.4998 14.8963 12.7431C14.7592 12.9137 14.6134 13.077 14.4594 13.2324L14.3084 13.3911C14.2204 13.4731 14.1518 13.5738 14.1075 13.6858C14.071 13.7944 14.0583 13.9101 14.0724 14.0243C14.1876 14.3374 14.3681 14.6223 14.6027 14.8592C14.9679 15.3556 15.3191 15.7879 15.7139 16.2991C16.3947 17.0877 17.2018 17.7567 18.102 18.2785C18.1884 18.349 18.2916 18.3962 18.4026 18.4153C18.5009 18.4301 18.6 18.4153 18.6892 18.3715C18.9627 18.2246 19.206 18.0269 19.4063 17.7891C19.6592 17.476 20.0258 17.2772 20.4248 17.2341C20.6163 17.2349 20.8057 17.2741 20.9818 17.3496C21.158 17.425 21.3172 17.5351 21.4503 17.6734C21.6141 17.8154 21.7694 17.9666 21.9159 18.1269L22.1309 18.3574L22.3535 18.5732C22.4891 18.71 22.6183 18.8327 22.7469 18.9766C22.981 19.1787 23.1987 19.3971 23.4001 19.6316C23.6059 19.8954 23.7098 20.2254 23.6937 20.5603Z" fill="black"/>
</svg>
