<svg width="32" height="32" viewBox="0 0 32 32" fill="none" xmlns="http://www.w3.org/2000/svg">
<rect width="32" height="32" rx="16" fill="#E7E7E7"/>
<path fill-rule="evenodd" clip-rule="evenodd" d="M20.9711 9.56986C20.6061 9.20498 20.1111 9 19.595 9C19.0789 9 18.5839 9.20498 18.2189 9.56986L17.7602 10.0292L20.9717 13.2407L21.4298 12.782C21.6106 12.6012 21.754 12.3867 21.8518 12.1505C21.9496 11.9143 22 11.6612 22 11.4056C22 11.15 21.9496 10.8968 21.8518 10.6607C21.754 10.4245 21.6106 10.2099 21.4298 10.0292L20.9711 9.56986ZM20.0537 14.1581L16.8421 10.9466L10.9445 16.8447C10.8155 16.9737 10.7253 17.1365 10.6844 17.3144L10.0168 20.2047C9.99189 20.312 9.99474 20.4239 10.0251 20.5298C10.0554 20.6357 10.1121 20.7321 10.19 20.81C10.2679 20.8879 10.3644 20.9446 10.4702 20.9749C10.5761 21.0053 10.688 21.0081 10.7953 20.9832L13.6864 20.3163C13.864 20.2752 14.0266 20.1851 14.1555 20.0561L20.0537 14.1581Z" fill="#0A0A0A"/>
</svg>
