<svg width="42" height="42" viewBox="0 0 42 42" fill="none" xmlns="http://www.w3.org/2000/svg">
<!-- <rect width="42" height="42" rx="21" fill="#F8F8F8"/> -->
<path d="M17.9645 13.4645C18.9021 12.5268 20.1739 12 21.5 12C22.8261 12 24.0979 12.5268 25.0355 13.4645C25.9732 14.4021 26.5 15.6739 26.5 17C26.5 18.3261 25.9732 19.5979 25.0355 20.5355C24.0979 21.4732 22.8261 22 21.5 22C20.1739 22 18.9021 21.4732 17.9645 20.5355C17.0268 19.5979 16.5 18.3261 16.5 17C16.5 15.6739 17.0268 14.4021 17.9645 13.4645Z" />
<path d="M14.4289 24.1716C16.3043 23.4214 18.8478 23 21.5 23C24.1522 23 26.6957 23.4214 28.5711 24.1716C30.4464 24.9217 31 25.9391 31 27C31 28.0609 30.4464 29.0783 28.5711 29.8284C26.6957 30.5786 24.1522 31 21.5 31C18.8478 31 16.3043 30.5786 14.4289 29.8284C12.5536 29.0783 12 28.0609 12 27C12 25.9391 12.5536 24.9217 14.4289 24.1716Z" />
<path d="M15.9167 17.1052V17.1051C15.9167 15.7101 16.5014 14.3694 17.5472 13.3786C18.5933 12.3875 20.015 11.8284 21.5 11.8284C22.985 11.8284 24.4067 12.3875 25.4528 13.3786C26.4986 14.3694 27.0833 15.7101 27.0833 17.1051C27.0833 17.3853 27.2009 17.6511 27.4055 17.8448C27.6095 18.0382 27.8836 18.1446 28.1667 18.1446C28.4498 18.1446 28.7238 18.0382 28.9279 17.8448C29.1324 17.6511 29.25 17.3853 29.25 17.1051V17.1051C29.2499 15.848 28.9104 14.6126 28.2649 13.5165C27.6194 12.4205 26.6897 11.5007 25.5655 10.8432C24.4413 10.1858 23.1593 9.81228 21.8413 9.75714C20.5233 9.702 19.2119 9.96706 18.0314 10.5278C16.8508 11.0886 15.8397 11.9268 15.0951 12.9642C14.3504 14.0016 13.8974 15.2034 13.7803 16.4555C13.6633 17.7076 13.8862 18.9668 14.4273 20.1132C14.9684 21.2594 15.8091 22.2539 16.8681 23.0032C17.7436 23.6228 18.7464 24.0592 19.8103 24.2849C19.9881 24.6015 20.2593 24.8607 20.5895 25.0307C20.9586 25.2206 21.3822 25.2896 21.7953 25.2281C22.2086 25.1666 22.591 24.9775 22.8826 24.6875C23.1745 24.3973 23.3592 24.0219 23.4052 23.6188C23.4511 23.2156 23.3553 22.8103 23.1345 22.4659C22.9138 22.1219 22.5813 21.8588 22.1906 21.7148C21.7999 21.5708 21.3708 21.5529 20.9687 21.6635C20.6204 21.7593 20.3075 21.9475 20.0666 22.2064C18.8993 21.9133 17.8643 21.2704 17.1166 20.3747C16.3381 19.4422 15.9163 18.2901 15.9167 17.1052Z"  stroke="white" stroke-width="0.5"/>
</svg>
