<svg width="42" height="42" viewBox="0 0 42 42" fill="none" xmlns="http://www.w3.org/2000/svg">
<path d="M8.96447 4.46447C9.90215 3.52678 11.1739 3 12.5 3C13.8261 3 15.0979 3.52678 16.0355 4.46447C16.9732 5.40215 17.5 6.67392 17.5 8C17.5 9.32608 16.9732 10.5979 16.0355 11.5355C15.0979 12.4732 13.8261 13 12.5 13C11.1739 13 9.90215 12.4732 8.96447 11.5355C8.02678 10.5979 7.5 9.32608 7.5 8C7.5 6.67392 8.02678 5.40215 8.96447 4.46447Z" />
<path d="M5.42893 15.1716C7.3043 14.4214 9.84784 14 12.5 14C15.1522 14 17.6957 14.4214 19.5711 15.1716C21.4464 15.9217 22 16.9391 22 18C22 19.0609 21.4464 20.0783 19.5711 20.8284C17.6957 21.5786 15.1522 22 12.5 22C9.84784 22 7.3043 21.5786 5.42893 20.8284C3.55357 20.0783 3 19.0609 3 18C3 16.9391 3.55357 15.9217 5.42893 15.1716Z" />
<path d="M6.91667 8.10515V8.10508C6.91667 6.71012 7.50144 5.36937 8.54715 4.37863C9.59332 3.38747 11.015 2.82843 12.5 2.82843C13.985 2.82843 15.4067 3.38747 16.4528 4.37863C17.4986 5.36937 18.0833 6.71012 18.0833 8.10508C18.0833 8.38527 18.2009 8.65106 18.4055 8.84484C18.6095 9.03819 18.8836 9.14461 19.1667 9.14461C19.4498 9.14461 19.7238 9.03819 19.9279 8.84484C20.1324 8.65106 20.25 8.38527 20.25 8.10508V8.10506C20.2499 6.84801 19.9104 5.61265 19.2649 4.51652C18.6194 3.42051 17.6897 2.50067 16.5655 1.84324C15.4413 1.18584 14.1593 0.812276 12.8413 0.757137C11.5233 0.701998 10.2119 0.967061 9.03137 1.5278C7.85081 2.08856 6.83966 2.9268 6.09507 3.96415C5.35042 5.0016 4.89739 6.20343 4.78034 7.45549C4.66328 8.70759 4.88625 9.96682 5.42733 11.1132C5.96837 12.2594 6.80907 13.2539 7.86811 14.0032C8.74364 14.6228 9.74643 15.0592 10.8103 15.2849C10.9881 15.6015 11.2593 15.8607 11.5895 16.0307C11.9586 16.2206 12.3822 16.2896 12.7953 16.2281C13.2086 16.1666 13.591 15.9775 13.8826 15.6875C14.1745 15.3973 14.3592 15.0219 14.4052 14.6188C14.4511 14.2156 14.3553 13.8103 14.1345 13.4659C13.9138 13.1219 13.5813 12.8588 13.1906 12.7148C12.7999 12.5708 12.3708 12.5529 11.9687 12.6635C11.6204 12.7593 11.3075 12.9475 11.0666 13.2064C9.89931 12.9133 8.86426 12.2704 8.11655 11.3747C7.33814 10.4422 6.91633 9.29006 6.91667 8.10515Z" stroke-width="0.5"/>
</svg>
