<svg width="42" height="42" viewBox="0 0 42 42" fill="none" xmlns="http://www.w3.org/2000/svg">
<!-- <rect width="42" height="42" rx="21" fill="#F8F8F8"/> -->
<path d="M25.7217 13.0573C25.7217 13.0573 27.1092 12.3647 26.9931 14.0465C26.9549 14.7391 26.6081 17.1633 26.3381 19.785L25.4131 27.5518C25.4131 27.5518 25.3359 28.6897 24.642 28.8876C23.9484 29.0851 22.9077 28.195 22.7148 27.9971C22.5606 27.8485 19.8241 25.6223 18.8605 24.5343C18.5905 24.2371 18.2819 23.6437 18.8991 22.9512L22.9463 18.004C23.4088 17.4097 23.8713 16.0246 21.9441 17.7069L16.5476 22.4063C16.5476 22.4063 15.9309 22.9014 14.7748 22.4561L12.269 21.4664C12.269 21.4664 11.344 20.7244 12.9244 19.9825C16.7791 17.6575 21.5202 15.2831 25.7213 13.0568"/>
</svg>
