<svg width="42" height="42" viewBox="0 0 42 42" fill="none" xmlns="http://www.w3.org/2000/svg">
<!-- <rect width="42" height="42" rx="21" fill="#F8F8F8"/> -->
<path fill-rule="evenodd" clip-rule="evenodd" d="M24.4503 13.668C24.9609 13.668 25.4614 13.8102 25.8958 14.0786C26.3302 14.347 26.6812 14.7311 26.9097 15.1878L28.1802 17.7279C28.4038 17.6362 28.6238 17.5372 28.8402 17.4309C29.0578 17.3222 29.3096 17.3044 29.5403 17.3814C29.771 17.4585 29.9617 17.624 30.0703 17.8416C30.179 18.0591 30.1968 18.311 30.1198 18.5417C30.0428 18.7724 29.8773 18.963 29.6597 19.0717C29.4393 19.1698 29.2178 19.2651 28.9951 19.3577L29.876 21.1205C30.0672 21.5027 30.1667 21.9242 30.1666 22.3516V24.668C30.1666 25.0549 30.0849 25.4374 29.927 25.7906C29.769 26.1438 29.5383 26.4597 29.2499 26.7176V27.8763C29.2499 28.241 29.1051 28.5907 28.8472 28.8486C28.5893 29.1064 28.2396 29.2513 27.8749 29.2513C27.5102 29.2513 27.1605 29.1064 26.9026 28.8486C26.6448 28.5907 26.4999 28.241 26.4999 27.8763V27.418H15.4999V27.8763C15.4999 28.241 15.3551 28.5907 15.0972 28.8486C14.8393 29.1064 14.4896 29.2513 14.1249 29.2513C13.7602 29.2513 13.4105 29.1064 13.1526 28.8486C12.8948 28.5907 12.7499 28.241 12.7499 27.8763V26.7176C12.1871 26.2135 11.8333 25.482 11.8333 24.668V22.3506C11.8334 21.9239 11.9329 21.503 12.1238 21.1214L12.9974 19.3724C12.7762 19.2795 12.5577 19.1796 12.342 19.0726C12.1255 18.9625 11.961 18.7718 11.8838 18.5415C11.8066 18.3112 11.823 18.0598 11.9295 17.8416C11.9833 17.7338 12.0578 17.6377 12.1487 17.5587C12.2396 17.4797 12.3452 17.4194 12.4595 17.3813C12.5737 17.3432 12.6944 17.3279 12.8145 17.3364C12.9347 17.3449 13.0519 17.377 13.1597 17.4309C13.3766 17.5378 13.5966 17.6368 13.8197 17.7279L15.0902 15.1887C15.3185 14.7319 15.6695 14.3476 16.1039 14.079C16.5383 13.8104 17.0389 13.6681 17.5496 13.668H24.4503ZM16.8749 21.918C16.5102 21.918 16.1605 22.0628 15.9026 22.3207C15.6448 22.5786 15.4999 22.9283 15.4999 23.293C15.4999 23.6576 15.6448 24.0074 15.9026 24.2652C16.1605 24.5231 16.5102 24.668 16.8749 24.668C17.2396 24.668 17.5893 24.5231 17.8472 24.2652C18.1051 24.0074 18.2499 23.6576 18.2499 23.293C18.2499 22.9283 18.1051 22.5786 17.8472 22.3207C17.5893 22.0628 17.2396 21.918 16.8749 21.918ZM25.1249 21.918C24.7602 21.918 24.4105 22.0628 24.1526 22.3207C23.8948 22.5786 23.7499 22.9283 23.7499 23.293C23.7499 23.6576 23.8948 24.0074 24.1526 24.2652C24.4105 24.5231 24.7602 24.668 25.1249 24.668C25.4896 24.668 25.8393 24.5231 26.0972 24.2652C26.3551 24.0074 26.4999 23.6576 26.4999 23.293C26.4999 22.9283 26.3551 22.5786 26.0972 22.3207C25.8393 22.0628 25.4896 21.918 25.1249 21.918ZM24.4503 15.5013H17.5496C17.3987 15.5013 17.2502 15.5385 17.1171 15.6097C16.9841 15.6808 16.8707 15.7837 16.7869 15.9092L16.7301 16.0082L15.5659 18.3347C16.9849 18.7601 18.8971 19.168 20.9999 19.168C22.9634 19.168 24.7592 18.8123 26.1424 18.4191L26.433 18.3347L25.2698 16.0082C25.2023 15.8733 25.1026 15.7571 24.9794 15.67C24.8563 15.5828 24.7136 15.5274 24.5639 15.5086L24.4512 15.5013H24.4503Z" />
</svg>
