<svg width="42" height="42" viewBox="0 0 42 42" fill="none" xmlns="http://www.w3.org/2000/svg">
<!-- <rect width="42" height="42" rx="21" fill="#F8F8F8"/> -->
<g clip-path="url(#clip0_4823_19909)">
<mask id="mask0_4823_19909" style="mask-type:luminance" maskUnits="userSpaceOnUse" x="11" y="12" width="19" height="19">
<path d="M20.4999 29.4154C21.5397 29.4167 22.5696 29.2125 23.5302 28.8145C24.4909 28.4166 25.3635 27.8328 26.0978 27.0966C26.834 26.3622 27.4178 25.4897 27.8158 24.529C28.2137 23.5683 28.4179 22.5385 28.4166 21.4987C28.4179 20.4589 28.2137 19.4291 27.8158 18.4684C27.4178 17.5077 26.834 16.6352 26.0978 15.9008C25.3635 15.1646 24.4909 14.5808 23.5302 14.1829C22.5696 13.7849 21.5397 13.5808 20.4999 13.582C19.4601 13.5808 18.4303 13.7849 17.4696 14.1829C16.509 14.5808 15.6364 15.1646 14.902 15.9008C14.1659 16.6352 13.582 17.5077 13.1841 18.4684C12.7862 19.4291 12.582 20.4589 12.5833 21.4987C12.582 22.5385 12.7862 23.5683 13.1841 24.529C13.582 25.4897 14.1659 26.3622 14.902 27.0966C15.6364 27.8328 16.509 28.4166 17.4696 28.8145C18.4303 29.2125 19.4601 29.4167 20.4999 29.4154Z" fill="white" stroke="white" stroke-width="2" stroke-linejoin="round"/>
<path d="M17.3333 21.5L19.7083 23.875L24.4583 19.125" stroke="black" stroke-width="2" stroke-linecap="round" stroke-linejoin="round"/>
</mask>
<g mask="url(#mask0_4823_19909)">
<path d="M11 12H30V31H11V12Z" />
</g>
</g>
<defs>
<!-- <clipPath id="clip0_4823_19909">
<rect width="19" height="19" transform="translate(11 12)"/>
</clipPath> -->
</defs>
</svg>
