<svg width="42" height="42" viewBox="0 0 42 42" fill="none" xmlns="http://www.w3.org/2000/svg">
<!-- <rect width="42" height="42" rx="21" fill="#F8F8F8"/> -->
<path d="M17.4583 13.082C17.4583 12.9163 17.3924 12.7573 17.2752 12.6401C17.158 12.5229 16.999 12.457 16.8333 12.457C16.6675 12.457 16.5085 12.5229 16.3913 12.6401C16.2741 12.7573 16.2083 12.9163 16.2083 13.082V14.3987C15.0083 14.4945 14.2216 14.7295 13.6433 15.3087C13.0641 15.887 12.8291 16.6745 12.7324 17.8737H29.2674C29.1708 16.6737 28.9358 15.887 28.3566 15.3087C27.7783 14.7295 26.9908 14.4945 25.7916 14.3979V13.082C25.7916 12.9163 25.7257 12.7573 25.6085 12.6401C25.4913 12.5229 25.3323 12.457 25.1666 12.457C25.0008 12.457 24.8419 12.5229 24.7246 12.6401C24.6074 12.7573 24.5416 12.9163 24.5416 13.082V14.3429C23.9874 14.332 23.3658 14.332 22.6666 14.332H19.3333C18.6341 14.332 18.0124 14.332 17.4583 14.3429V13.082Z" />
<path fill-rule="evenodd" clip-rule="evenodd" d="M29.3334 21V22.6667C29.3334 25.8092 29.3334 27.3808 28.3567 28.3567C27.3801 29.3325 25.8092 29.3333 22.6667 29.3333H19.3334C16.1909 29.3333 14.6192 29.3333 13.6434 28.3567C12.6676 27.38 12.6667 25.8092 12.6667 22.6667V21C12.6667 20.3008 12.6667 19.6792 12.6776 19.125H29.3226C29.3334 19.6792 29.3334 20.3008 29.3334 21ZM24.7501 26C25.0816 26 25.3995 25.8683 25.634 25.6339C25.8684 25.3995 26.0001 25.0815 26.0001 24.75C26.0001 24.4185 25.8684 24.1005 25.634 23.8661C25.3995 23.6317 25.0816 23.5 24.7501 23.5C24.4186 23.5 24.1006 23.6317 23.8662 23.8661C23.6318 24.1005 23.5001 24.4185 23.5001 24.75C23.5001 25.0815 23.6318 25.3995 23.8662 25.6339C24.1006 25.8683 24.4186 26 24.7501 26Z" />
</svg>
