<svg width="42" height="42" viewBox="0 0 42 42" fill="none" xmlns="http://www.w3.org/2000/svg">

<path d="M26.0808 22.1549L23.1 24.8038H19.1V23.9149H22.352C22.4244 23.9148 22.4953 23.893 22.5574 23.8517C22.6195 23.8103 22.6703 23.7511 22.7044 23.6802C22.7386 23.6093 22.7548 23.5295 22.7513 23.4492C22.7479 23.3689 22.7249 23.2911 22.6848 23.2242L21.9744 22.0402C21.8284 21.7968 21.6306 21.5971 21.3985 21.4589C21.1665 21.3208 20.9073 21.2484 20.644 21.2482H14.3C14.0878 21.2482 13.8843 21.3419 13.7343 21.5086C13.5843 21.6753 13.5 21.9013 13.5 22.1371V27.4704C13.5 27.9419 13.6686 28.3941 13.9686 28.7275C14.2687 29.0609 14.6757 29.2482 15.1 29.2482H22.8112C23.1533 29.2483 23.4914 29.1671 23.803 29.0101C24.1145 28.8532 24.3923 28.624 24.6176 28.338L29.5 22.1371L28.3384 21.7069C27.9583 21.5663 27.5527 21.5336 27.1583 21.6119C26.764 21.6901 26.3936 21.8768 26.0808 22.1549Z"/>
<path d="M23.9585 14.4172C23.3017 14.0572 22.5609 14.1028 21.9585 14.454C21.2258 14.8812 20.7378 15.7268 20.7594 16.6852C20.7874 17.9396 21.7569 18.9228 23.0673 19.7012L23.0685 19.7019C23.3425 19.864 23.6309 20.0348 23.9585 20.0348C24.286 20.0348 24.573 19.8649 24.8465 19.703L24.8496 19.7012C26.16 18.9228 27.1295 17.9404 27.1583 16.6844C27.1791 15.726 26.6911 14.8812 25.9584 14.454C25.356 14.1028 24.6152 14.0572 23.9585 14.4172Z"/>
</svg>
