<svg width="42" height="42" viewBox="0 0 42 42" fill="none" xmlns="http://www.w3.org/2000/svg">
<!-- <rect width="42" height="42" rx="21" fill="#F8F8F8"/> -->
<path fill-rule="evenodd" clip-rule="evenodd" d="M27.45 29H15.55C14.5929 29 13.9129 28.5908 13.4998 28.0283C13.1786 27.5806 13.0042 27.0474 13 26.5V16.5C13 15.837 13.2687 15.2011 13.7469 14.7322C14.2251 14.2634 14.8737 14 15.55 14H24.05C24.7263 14 25.3749 14.2634 25.8531 14.7322C26.3313 15.2011 26.6 15.837 26.6 16.5V20.6667H29.15C29.3754 20.6667 29.5916 20.7545 29.751 20.9107C29.9104 21.067 30 21.279 30 21.5V26.5C30 26.9108 29.881 27.5092 29.5002 28.0283C29.0863 28.5917 28.4063 29 27.45 29ZM28.3 23.1667C28.3 22.9457 28.2104 22.7337 28.051 22.5774C27.8916 22.4211 27.6754 22.3333 27.45 22.3333C27.2246 22.3333 27.0084 22.4211 26.849 22.5774C26.6896 22.7337 26.6 22.9457 26.6 23.1667V26.5C26.6 26.721 26.6896 26.933 26.849 27.0893C27.0084 27.2455 27.2246 27.3333 27.45 27.3333C27.6754 27.3333 27.8916 27.2455 28.051 27.0893C28.2104 26.933 28.3 26.721 28.3 26.5V23.1667Z"/>
</svg>
