<svg width="42" height="42" viewBox="0 0 42 42" fill="none" xmlns="http://www.w3.org/2000/svg">
<!-- <rect width="42" height="42" rx="21" fill="#F8F8F8"/> -->
<path d="M18.0001 16.5C18.5305 16.5 19.0392 16.2893 19.4143 15.9142C19.7894 15.5391 20.0001 15.0304 20.0001 14.5C20.0001 13.9696 19.7894 13.4609 19.4143 13.0858C19.0392 12.7107 18.5305 12.5 18.0001 12.5C17.4696 12.5 16.9609 12.7107 16.5859 13.0858C16.2108 13.4609 16.0001 13.9696 16.0001 14.5C16.0001 15.0304 16.2108 15.5391 16.5859 15.9142C16.9609 16.2893 17.4696 16.5 18.0001 16.5ZM15.2581 19.4675C15.3351 19.3751 15.4159 19.2859 15.5001 19.2V28C15.4999 28.2558 15.5978 28.5019 15.7735 28.6878C15.9493 28.8736 16.1896 28.985 16.445 28.9991C16.7004 29.0132 16.9515 28.9289 17.1466 28.7635C17.3418 28.5981 17.4661 28.3643 17.4941 28.11L17.8951 24.5H18.1051L18.5061 28.11C18.5341 28.3643 18.6584 28.5981 18.8535 28.7635C19.0487 28.9289 19.2998 29.0132 19.5552 28.9991C19.8106 28.985 20.0509 28.8736 20.2266 28.6878C20.4024 28.5019 20.5002 28.2558 20.5001 28V21.18C20.5751 20.782 20.8556 20.2055 21.2981 19.664C21.6946 20.1515 21.9611 20.667 22.0641 21.056C22.0536 21.8815 21.3891 24.971 21.1161 26.2105C21.101 26.277 21.0999 26.3459 21.1129 26.4129C21.1259 26.4799 21.1526 26.5434 21.1913 26.5995C21.2301 26.6556 21.2801 26.7031 21.3381 26.7389C21.3962 26.7747 21.461 26.798 21.5286 26.8075C23.3751 27.061 24.9706 27.0605 26.8016 26.8275C27.1431 26.784 27.3426 26.4055 27.2186 26.084C26.8501 25.1275 26.2501 23.141 26.2501 20.339V18.876C26.4451 19.026 26.6501 19.223 26.8541 19.4675C27.3826 20.101 27.7106 20.8265 27.7536 21.2775C27.7756 21.473 27.8735 21.652 28.0262 21.776C28.179 21.8999 28.3743 21.9589 28.5701 21.9402C28.766 21.9215 28.9466 21.8267 29.0731 21.676C29.1997 21.5254 29.2619 21.3311 29.2466 21.135C29.1651 20.277 28.6466 19.2745 28.0061 18.507C27.3841 17.761 26.4466 17 25.3951 17H23.0811C22.4396 17 21.8306 17.2575 21.3001 17.624C20.7716 17.2575 20.1641 17 19.5241 17H16.7171C15.6656 17 14.7286 17.761 14.1061 18.507C13.4661 19.2745 12.9471 20.277 12.8656 21.135C12.8502 21.3311 12.9125 21.5254 13.039 21.676C13.1656 21.8267 13.3462 21.9215 13.542 21.9402C13.7378 21.9589 13.9332 21.8999 14.0859 21.776C14.2387 21.652 14.3366 21.473 14.3586 21.2775C14.4016 20.8265 14.7296 20.101 15.2586 19.4675"/>
<path d="M24.25 16.5C24.7804 16.5 25.2891 16.2893 25.6642 15.9142C26.0393 15.5391 26.25 15.0304 26.25 14.5C26.25 13.9696 26.0393 13.4609 25.6642 13.0858C25.2891 12.7107 24.7804 12.5 24.25 12.5C23.7196 12.5 23.2109 12.7107 22.8358 13.0858C22.4607 13.4609 22.25 13.9696 22.25 14.5C22.25 15.0304 22.4607 15.5391 22.8358 15.9142C23.2109 16.2893 23.7196 16.5 24.25 16.5ZM28.75 22C28.4185 22 28.1005 22.1317 27.8661 22.3661C27.6317 22.6005 27.5 22.9185 27.5 23.25V23.7565C27.5 23.8891 27.5527 24.0163 27.6464 24.1101C27.7402 24.2038 27.8674 24.2565 28 24.2565C28.1326 24.2565 28.2598 24.2038 28.3536 24.1101C28.4473 24.0163 28.5 23.8891 28.5 23.7565V23.25C28.5 23.1837 28.5263 23.1201 28.5732 23.0732C28.6201 23.0263 28.6837 23 28.75 23C28.8163 23 28.8799 23.0263 28.9268 23.0732C28.9737 23.1201 29 23.1837 29 23.25V28.5C29 28.6326 29.0527 28.7598 29.1464 28.8536C29.2402 28.9473 29.3674 29 29.5 29C29.6326 29 29.7598 28.9473 29.8536 28.8536C29.9473 28.7598 30 28.6326 30 28.5V23.25C30 22.9185 29.8683 22.6005 29.6339 22.3661C29.3995 22.1317 29.0815 22 28.75 22ZM21.75 28.694V27.576C22.3453 27.6529 22.944 27.6999 23.544 27.717L23.224 28.891C23.1765 29.0666 23.0668 29.219 22.9154 29.3197C22.7639 29.4205 22.581 29.4627 22.4006 29.4386C22.2203 29.4145 22.0549 29.3257 21.9352 29.1887C21.8155 29.0517 21.7497 28.8759 21.75 28.694ZM25.2765 28.891L24.9495 27.6925C25.5522 27.6542 26.1529 27.59 26.75 27.5V28.694C26.7499 28.8756 26.6838 29.051 26.5642 29.1876C26.4445 29.3242 26.2794 29.4127 26.0994 29.4368C25.9194 29.4608 25.7368 29.4188 25.5855 29.3184C25.4341 29.218 25.3243 29.0662 25.2765 28.891Z"/>
</svg>
