<svg width="36" height="28" viewBox="0 0 36 28" fill="none" xmlns="http://www.w3.org/2000/svg">
<path fill-rule="evenodd" clip-rule="evenodd" d="M14.1599 1.94366L13.7584 2.29758C13.6975 2.33244 13.6282 2.3496 13.5582 2.34715L12.8041 2.1459C12.7549 2.1459 12.7057 2.09633 12.6535 2.04676L12.4027 1.59173C12.3535 1.49259 12.3535 1.38948 12.4027 1.33893L12.9044 0.631584C12.9536 0.532447 13.055 0.479905 13.1553 0.532447L13.9577 0.835806C14.058 0.835806 14.1082 0.886366 14.1082 0.987486L14.2587 1.74539C14.2459 1.81986 14.2115 1.88884 14.1599 1.94366ZM18.1225 5.88585L18.2209 5.22857C18.2194 5.1351 18.1845 5.0453 18.1225 4.97577L17.3703 4.62234C17.2719 4.57277 17.1696 4.57277 17.1194 4.67191L16.5173 5.33018C16.4169 5.4313 16.4169 5.53242 16.5173 5.63354L17.019 6.24026C17.0297 6.25066 17.0412 6.26011 17.0535 6.26851L17.0702 6.27942C17.0795 6.28438 17.0889 6.28933 17.0992 6.29379C17.1261 6.30625 17.1554 6.31245 17.1849 6.31193C17.2145 6.31142 17.2435 6.3042 17.2699 6.29082L18.0221 6.08858C18.0229 6.076 18.0273 6.06392 18.0349 6.05388C18.0426 6.0429 18.0508 6.03231 18.0595 6.02216C18.0788 6.00146 18.0953 5.97829 18.1087 5.95326C18.1183 5.93213 18.123 5.90908 18.1225 5.88585ZM11.7021 6.99767L11.953 6.39144C11.9943 6.30817 11.9673 6.2591 11.9289 6.18821C11.921 6.17384 11.9127 6.15798 11.9043 6.13864L11.4527 5.63305C11.4035 5.53391 11.3022 5.53391 11.2018 5.58348L10.55 5.88684C10.5039 5.91052 10.4654 5.94678 10.4387 5.99148C10.4121 6.03618 10.3985 6.08752 10.3995 6.13964L10.6002 6.9481C10.6002 7.04724 10.6986 7.09978 10.8009 7.09978H11.4512C11.6018 7.14935 11.6519 7.09879 11.7021 6.99767ZM16.2669 16.3483C16.1685 16.2987 16.016 16.1966 15.9658 16.0955C15.4138 15.2865 14.7118 14.3769 13.7083 14.0736C13.508 14.024 12.9561 13.7702 12.3539 13.3657C11.953 13.1134 11.4011 12.709 11.2003 12.4562C10.3478 11.3443 9.14402 10.6871 7.89006 10.7887C7.73953 10.7887 7.48864 10.9374 7.28793 11.0915L7.23873 11.1411C7.18954 11.1907 7.14034 11.2402 7.14034 11.2928C7.13983 11.2837 7.13983 11.2746 7.14034 11.2655C7.14134 11.2536 7.14349 11.2418 7.14674 11.2303L7.23775 11.1411C7.21491 11.1437 7.19359 11.1539 7.17712 11.1701C7.16065 11.1862 7.14997 11.2074 7.14674 11.2303C4.30774 14.0205 2.15402 16.9976 1.0196 19.6322C-1.84105 25.5467 1.61977 29.2866 7.63868 26.608C10.3473 25.4961 13.5076 23.3226 16.3662 20.4922C16.6171 20.1388 16.868 19.7849 16.9684 19.3804C17.2699 18.3697 17.2699 16.8534 16.2669 16.3483ZM15.0626 19.3804C12.3043 22.0571 9.39491 24.0304 6.98686 25.0411C0.917765 27.5691 0.717053 23.3731 3.12462 19.1276C3.22301 18.9258 3.47587 18.9258 3.6264 19.0284C4.47894 19.8374 5.23161 20.747 5.83325 22.1116C5.86462 22.1885 5.92255 22.2513 5.99635 22.2885C6.07015 22.3257 6.15481 22.3347 6.23468 22.3138L7.18757 21.9094C7.3381 21.8598 7.43846 21.6571 7.38828 21.4548C6.58592 19.6352 5.58236 18.4728 4.47894 17.5121C4.3284 17.413 4.3284 17.2093 4.42974 17.0576C4.88135 16.4003 5.33295 15.7941 5.88442 15.1368C5.9828 15.0377 6.18548 14.9851 6.28584 15.0377C8.04158 16.0489 9.34572 17.7144 10.1983 19.3843C10.2986 19.536 10.4491 19.5866 10.6499 19.536L11.5526 19.081C11.7031 18.9818 11.8035 18.7781 11.7031 18.6264C10.7502 16.7562 9.29554 14.9871 7.48962 13.7742C7.45081 13.7462 7.41838 13.7102 7.39451 13.6686C7.37064 13.627 7.35589 13.5807 7.35123 13.5329C7.34657 13.485 7.35211 13.4368 7.3675 13.3913C7.38289 13.3458 7.40775 13.3041 7.44043 13.2691C7.56587 13.1427 7.67853 13.0163 7.79167 12.8899C7.90482 12.7635 8.01748 12.6371 8.14292 12.5107C8.24131 12.4115 8.34314 12.4115 8.49368 12.4115C9.16124 12.6267 9.61531 13.0996 10.0753 13.5784C10.4801 13.9997 10.8899 14.426 11.4527 14.6862C11.9353 15.0506 12.3249 15.2047 12.6944 15.351C13.0928 15.5086 13.4682 15.6573 13.9105 16.0509C14.0669 16.2253 14.2228 16.4365 14.3812 16.6506C14.6803 17.0551 14.9868 17.4695 15.3159 17.6678C15.4163 17.7183 15.4665 17.8195 15.4665 17.9711C15.4138 18.673 15.3622 18.9759 15.0626 19.3804ZM22.9381 6.64375C28.1035 8.36229 32.3179 10.0808 35.0266 13.9725C38.7885 22.1096 24.5428 20.9978 19.4768 19.2793C19.0257 19.1801 18.4737 18.7742 18.3232 18.3697C17.7712 17.2579 17.9217 15.7425 18.3724 14.882C18.4849 14.5736 18.626 14.2765 18.794 13.9948C18.9239 13.7785 19.0345 13.5511 19.1245 13.3152C19.2569 12.8334 19.2692 12.3025 19.282 11.7652C19.3085 10.6687 19.3351 9.54698 20.379 8.76677C20.508 8.64308 20.6254 8.50768 20.7298 8.36229C20.7947 8.25076 20.8601 8.13179 20.9265 8.00986C21.3742 7.19198 21.8902 6.24819 22.9381 6.64375ZM20.0287 17.7124C24.8439 18.9258 28.957 19.4815 32.77 17.9146C35.9303 16.1455 32.5698 13.2145 30.4628 11.7483C30.4159 11.7148 30.3607 11.6948 30.3033 11.6904C30.246 11.686 30.1885 11.6974 30.137 11.7233C30.0855 11.7493 30.042 11.7888 30.0111 11.8378C29.9802 11.8867 29.9631 11.9431 29.9615 12.0011C29.9124 13.0629 29.9615 14.6282 30.1618 15.3876C30.1738 15.4174 30.1794 15.4493 30.1782 15.4814C30.177 15.5135 30.169 15.545 30.1547 15.5737C30.1405 15.6024 30.1203 15.6277 30.0955 15.648C30.0708 15.6682 30.0421 15.6829 30.0112 15.691L28.958 16.095C28.8074 16.1941 28.6569 16.095 28.6067 15.9433C28.1556 14.4781 28.2058 12.355 28.3563 10.7386C28.4055 10.6395 28.3071 10.4858 28.2058 10.4357C27.4714 10.059 26.7179 9.72148 25.9483 9.42454C25.8685 9.40371 25.7839 9.41272 25.7102 9.44991C25.6365 9.48709 25.5786 9.54992 25.5473 9.62678C24.8449 11.4464 24.8449 13.8723 25.1961 15.3381C25.2453 15.4897 25.1469 15.6414 24.9954 15.692L23.892 15.9953C23.7414 16.0449 23.5909 15.9458 23.5407 15.7931C23.0896 14.024 23.0896 11.1936 23.8418 9.07112C23.8625 8.99064 23.8536 8.90533 23.8167 8.83098C23.7798 8.75662 23.7174 8.69824 23.6411 8.66664C23.3902 8.5675 23.1393 8.51496 22.8387 8.41384C22.7403 8.36427 22.5376 8.41384 22.4875 8.56552C22.4329 8.66466 22.3817 8.76677 22.331 8.8664C22.1023 9.31599 21.8858 9.74129 21.4342 10.0313C21.083 10.3346 20.9324 10.6375 20.9324 10.7386C20.8636 10.8779 20.8891 11.3265 20.9123 11.7255C20.9226 11.9069 20.9324 12.0779 20.9324 12.2043C20.834 13.3162 20.7317 13.9229 20.2806 14.6828C19.8295 15.4427 19.3774 16.3002 19.6283 17.3099C19.6521 17.4075 19.702 17.4967 19.7726 17.5676C19.8432 17.6386 19.9318 17.6887 20.0287 17.7124Z" fill="#1F1F1F"/>
</svg>
