<svg width="130" height="28" viewBox="0 0 130 28" fill="none" xmlns="http://www.w3.org/2000/svg">
<g clip-path="url(#clip0_1404_6867)">
<path fill-rule="evenodd" clip-rule="evenodd" d="M14.1599 1.94366L13.7584 2.29758C13.6975 2.33244 13.6282 2.3496 13.5582 2.34715L12.8041 2.1459C12.7549 2.1459 12.7057 2.09633 12.6535 2.04676L12.4027 1.59173C12.3535 1.49259 12.3535 1.38948 12.4027 1.33893L12.9044 0.631584C12.9536 0.532447 13.055 0.479905 13.1553 0.532447L13.9577 0.835806C14.058 0.835806 14.1082 0.886366 14.1082 0.987486L14.2587 1.74539C14.2459 1.81986 14.2115 1.88884 14.1599 1.94366ZM18.1225 5.88585L18.2209 5.22857C18.2194 5.1351 18.1845 5.0453 18.1225 4.97577L17.3703 4.62234C17.2719 4.57277 17.1696 4.57277 17.1194 4.67191L16.5173 5.33018C16.4169 5.4313 16.4169 5.53242 16.5173 5.63354L17.019 6.24026C17.0297 6.25066 17.0412 6.26011 17.0535 6.26851L17.0702 6.27942C17.0795 6.28438 17.0889 6.28933 17.0992 6.29379C17.1261 6.30625 17.1554 6.31245 17.1849 6.31193C17.2145 6.31142 17.2435 6.3042 17.2699 6.29082L18.0221 6.08858C18.0229 6.076 18.0273 6.06392 18.0349 6.05388C18.0426 6.0429 18.0508 6.03231 18.0595 6.02216C18.0788 6.00146 18.0953 5.97829 18.1087 5.95326C18.1183 5.93213 18.123 5.90908 18.1225 5.88585ZM11.7021 6.99767L11.953 6.39144C11.9943 6.30817 11.9673 6.2591 11.9289 6.18821C11.921 6.17384 11.9127 6.15798 11.9043 6.13864L11.4527 5.63305C11.4035 5.53391 11.3022 5.53391 11.2018 5.58348L10.55 5.88684C10.5039 5.91052 10.4654 5.94678 10.4387 5.99148C10.4121 6.03618 10.3985 6.08752 10.3995 6.13964L10.6002 6.9481C10.6002 7.04724 10.6986 7.09978 10.8009 7.09978H11.4512C11.6018 7.14935 11.6519 7.09879 11.7021 6.99767ZM16.2669 16.3483C16.1685 16.2987 16.016 16.1966 15.9658 16.0955C15.4138 15.2865 14.7118 14.3769 13.7083 14.0736C13.508 14.024 12.9561 13.7702 12.3539 13.3657C11.953 13.1134 11.4011 12.709 11.2003 12.4562C10.3478 11.3443 9.14402 10.6871 7.89006 10.7887C7.73953 10.7887 7.48864 10.9374 7.28793 11.0915L7.23873 11.1411C7.18954 11.1907 7.14034 11.2402 7.14034 11.2928C7.13983 11.2837 7.13983 11.2746 7.14034 11.2655C7.14134 11.2536 7.14349 11.2418 7.14674 11.2303L7.23775 11.1411C7.21491 11.1437 7.19359 11.1539 7.17712 11.1701C7.16065 11.1862 7.14997 11.2074 7.14674 11.2303C4.30774 14.0205 2.15402 16.9976 1.0196 19.6322C-1.84105 25.5467 1.61977 29.2866 7.63868 26.608C10.3473 25.4961 13.5076 23.3226 16.3662 20.4922C16.6171 20.1388 16.868 19.7849 16.9684 19.3804C17.2699 18.3697 17.2699 16.8534 16.2669 16.3483ZM15.0626 19.3804C12.3043 22.0571 9.39491 24.0304 6.98686 25.0411C0.917765 27.5691 0.717053 23.3731 3.12462 19.1276C3.22301 18.9258 3.47587 18.9258 3.6264 19.0284C4.47894 19.8374 5.23161 20.747 5.83325 22.1116C5.86462 22.1885 5.92255 22.2513 5.99635 22.2885C6.07015 22.3257 6.15481 22.3347 6.23468 22.3138L7.18757 21.9094C7.3381 21.8598 7.43846 21.6571 7.38828 21.4548C6.58592 19.6352 5.58236 18.4728 4.47894 17.5121C4.3284 17.413 4.3284 17.2093 4.42974 17.0576C4.88135 16.4003 5.33295 15.7941 5.88442 15.1368C5.9828 15.0377 6.18548 14.9851 6.28584 15.0377C8.04158 16.0489 9.34572 17.7144 10.1983 19.3843C10.2986 19.536 10.4491 19.5866 10.6499 19.536L11.5526 19.081C11.7031 18.9818 11.8035 18.7781 11.7031 18.6264C10.7502 16.7562 9.29554 14.9871 7.48962 13.7742C7.45081 13.7462 7.41838 13.7102 7.39451 13.6686C7.37064 13.627 7.35589 13.5807 7.35123 13.5329C7.34657 13.485 7.35211 13.4368 7.3675 13.3913C7.38289 13.3458 7.40775 13.3041 7.44043 13.2691C7.56587 13.1427 7.67853 13.0163 7.79167 12.8899C7.90482 12.7635 8.01748 12.6371 8.14292 12.5107C8.24131 12.4115 8.34314 12.4115 8.49368 12.4115C9.16124 12.6267 9.61531 13.0996 10.0753 13.5784C10.4801 13.9997 10.8899 14.426 11.4527 14.6862C11.9353 15.0506 12.3249 15.2047 12.6944 15.351C13.0928 15.5086 13.4682 15.6573 13.9105 16.0509C14.0669 16.2253 14.2228 16.4365 14.3812 16.6506C14.6803 17.0551 14.9868 17.4695 15.3159 17.6678C15.4163 17.7183 15.4665 17.8195 15.4665 17.9711C15.4138 18.673 15.3622 18.9759 15.0626 19.3804ZM22.9381 6.64375C28.1035 8.36229 32.3179 10.0808 35.0266 13.9725C38.7885 22.1096 24.5428 20.9978 19.4768 19.2793C19.0257 19.1801 18.4737 18.7742 18.3232 18.3697C17.7712 17.2579 17.9217 15.7425 18.3724 14.882C18.4849 14.5736 18.626 14.2765 18.794 13.9948C18.9239 13.7785 19.0345 13.5511 19.1245 13.3152C19.2569 12.8334 19.2692 12.3025 19.282 11.7652C19.3085 10.6687 19.3351 9.54698 20.379 8.76677C20.508 8.64308 20.6254 8.50768 20.7298 8.36229C20.7947 8.25076 20.8601 8.13179 20.9265 8.00986C21.3742 7.19198 21.8902 6.24819 22.9381 6.64375ZM20.0287 17.7124C24.8439 18.9258 28.957 19.4815 32.77 17.9146C35.9303 16.1455 32.5698 13.2145 30.4628 11.7483C30.4159 11.7148 30.3607 11.6948 30.3033 11.6904C30.246 11.686 30.1885 11.6974 30.137 11.7233C30.0855 11.7493 30.042 11.7888 30.0111 11.8378C29.9802 11.8867 29.9631 11.9431 29.9615 12.0011C29.9124 13.0629 29.9615 14.6282 30.1618 15.3876C30.1738 15.4174 30.1794 15.4493 30.1782 15.4814C30.177 15.5135 30.169 15.545 30.1547 15.5737C30.1405 15.6024 30.1203 15.6277 30.0955 15.648C30.0708 15.6682 30.0421 15.6829 30.0112 15.691L28.958 16.095C28.8074 16.1941 28.6569 16.095 28.6067 15.9433C28.1556 14.4781 28.2058 12.355 28.3563 10.7386C28.4055 10.6395 28.3071 10.4858 28.2058 10.4357C27.4714 10.059 26.7179 9.72148 25.9483 9.42454C25.8685 9.40371 25.7839 9.41272 25.7102 9.44991C25.6365 9.48709 25.5786 9.54992 25.5473 9.62678C24.8449 11.4464 24.8449 13.8723 25.1961 15.3381C25.2453 15.4897 25.1469 15.6414 24.9954 15.692L23.892 15.9953C23.7414 16.0449 23.5909 15.9458 23.5407 15.7931C23.0896 14.024 23.0896 11.1936 23.8418 9.07112C23.8625 8.99064 23.8536 8.90533 23.8167 8.83098C23.7798 8.75662 23.7174 8.69824 23.6411 8.66664C23.3902 8.5675 23.1393 8.51496 22.8387 8.41384C22.7403 8.36427 22.5376 8.41384 22.4875 8.56552C22.4329 8.66466 22.3817 8.76677 22.331 8.8664C22.1023 9.31599 21.8858 9.74129 21.4342 10.0313C21.083 10.3346 20.9324 10.6375 20.9324 10.7386C20.8636 10.8779 20.8891 11.3265 20.9123 11.7255C20.9226 11.9069 20.9324 12.0779 20.9324 12.2043C20.834 13.3162 20.7317 13.9229 20.2806 14.6828C19.8295 15.4427 19.3774 16.3002 19.6283 17.3099C19.6521 17.4075 19.702 17.4967 19.7726 17.5676C19.8432 17.6386 19.9318 17.6887 20.0287 17.7124Z" fill="#1F1F1F"/>
<path d="M46.6714 17.8105C46.9388 17.4026 47.1808 16.9783 47.396 16.5401C47.6672 16.0175 47.8897 15.4707 48.0606 14.9068C48.2749 14.235 48.4366 13.5474 48.5442 12.8502C48.6708 12.0228 48.7315 11.1866 48.7258 10.3495V9.70508H55.3921V17.8105H57.0647V22.4486H55.3124V19.7665H47.4378V22.4486H45.6855V17.8105H46.6714ZM53.5586 17.8105V11.6606H50.417C50.3811 12.3518 50.2934 13.0392 50.1548 13.7172C50.0471 14.3114 49.8992 14.8975 49.7121 15.4714C49.5693 15.9467 49.3943 16.4116 49.1882 16.8628C49.0467 17.1884 48.8853 17.5049 48.7051 17.8105H53.5586Z" fill="#1F1F1F"/>
<path d="M64.9337 16.1983C64.773 15.9157 64.4507 15.7074 63.967 15.5732C63.4637 15.4222 62.941 15.3473 62.4159 15.3511C61.6508 15.3511 61.0534 15.4722 60.6237 15.7145C60.2076 15.9425 59.9995 16.2718 59.9995 16.7024C59.9995 17.1055 60.2008 17.4348 60.6036 17.6903C61.0198 17.9322 61.6239 18.0531 62.4159 18.0531C62.6803 18.0537 62.9441 18.0268 63.203 17.9728C63.4579 17.923 63.7075 17.8486 63.9483 17.7507C64.1638 17.6639 64.3669 17.5487 64.5524 17.4082C64.7116 17.2914 64.8425 17.1397 64.9351 16.9646L64.9337 16.1983ZM58.7101 11.2176C59.0863 10.6932 59.6033 10.2697 60.2612 9.94718C60.9191 9.62465 61.6508 9.46322 62.4562 9.46289C63.7992 9.46289 64.8533 9.81252 65.6184 10.5118C66.3839 11.1975 66.7666 12.1654 66.7666 13.4155V19.7672H64.9956V18.8799C64.861 19.0677 64.6895 19.2256 64.4919 19.3439C64.2614 19.4861 64.0189 19.6075 63.7673 19.7067C63.5051 19.8027 63.2356 19.877 62.9615 19.9288C62.6825 19.982 62.3992 20.0089 62.1153 20.0091C60.9205 20.0091 59.9606 19.7269 59.2355 19.1625C58.5238 18.5845 58.168 17.7778 58.168 16.7425C58.168 16.2181 58.2687 15.7543 58.47 15.3511C58.683 14.9503 58.9784 14.5999 59.3363 14.3231C59.7145 14.0329 60.1456 13.8203 60.6051 13.6975C61.1149 13.546 61.6442 13.4713 62.1758 13.476C62.4187 13.4772 62.6611 13.4975 62.9009 13.5364C63.1596 13.5614 63.4157 13.6086 63.6664 13.6777C63.9097 13.7405 64.1459 13.8283 64.3714 13.9399C64.578 14.0284 64.7686 14.151 64.9351 14.3028V13.8185C64.9351 13.4021 64.8613 13.0459 64.7137 12.7498C64.5794 12.4593 64.3792 12.2046 64.1293 12.0063C63.8754 11.7973 63.5803 11.6452 63.2635 11.5601C62.9294 11.4647 62.5836 11.4173 62.2363 11.4194C61.6309 11.4107 61.0315 11.5416 60.484 11.802C59.9593 12.0578 59.5431 12.3939 59.2355 12.8103L58.7101 11.2176Z" fill="#1F1F1F"/>
<path d="M78.967 12.6091C79.2487 13.2544 79.3898 13.9669 79.3901 14.7464C79.3904 15.526 79.2494 16.2385 78.967 16.8838C78.6989 17.5083 78.316 18.0761 77.8385 18.5573C76.865 19.4875 75.5751 20.007 74.2335 20.0091C73.4681 20.0091 72.8102 19.8814 72.2599 19.626C71.7096 19.3705 71.3537 19.0548 71.1924 18.6787V24.0624H69.3594V9.70533H71.1304V10.774C71.2914 10.3973 71.6472 10.0882 72.1979 9.8466C72.7617 9.59083 73.4263 9.46294 74.1917 9.46294C74.8747 9.46002 75.5517 9.59031 76.1856 9.8466C76.8036 10.0937 77.3655 10.4647 77.837 10.9371C78.3206 11.4129 78.7049 11.9813 78.967 12.6091ZM77.5571 14.7058C77.5571 13.6976 77.2483 12.8979 76.6308 12.3067C76.0132 11.7155 75.1941 11.4197 74.1735 11.4194C73.5111 11.4101 72.858 11.577 72.28 11.9032C71.7297 12.2125 71.3673 12.6091 71.1928 13.0928V16.3797C71.367 16.8635 71.7294 17.2668 72.28 17.5897C72.8441 17.899 73.4753 18.0535 74.1735 18.0532C75.1938 18.0532 76.0129 17.7508 76.6308 17.1461C77.2487 16.5413 77.5574 15.7279 77.5571 14.7058Z" fill="#1F1F1F"/>
<path d="M83.2348 9.70508V16.7438L88.5921 9.70508H90.4251V19.7675H88.5921V12.7288L83.2348 19.7675H81.4023V9.70508H83.2348Z" fill="#1F1F1F"/>
<path d="M102.589 18.0531C102.909 18.0536 103.227 18.0129 103.536 17.9322C103.832 17.8559 104.122 17.7548 104.402 17.6298C104.666 17.5189 104.916 17.3768 105.147 17.2065C105.342 17.0622 105.523 16.9001 105.688 16.7222L106.172 18.1542C106.047 18.406 105.876 18.6317 105.668 18.8194C105.426 19.0551 105.156 19.2585 104.863 19.4247C104.526 19.6104 104.167 19.7526 103.795 19.848C103.368 19.9586 102.928 20.0127 102.486 20.0091C101.772 20.0157 101.062 19.8928 100.391 19.6462C99.7807 19.404 99.2205 19.0484 98.74 18.5979C98.2726 18.1245 97.9029 17.5624 97.6523 16.9443C97.3968 16.2857 97.2692 15.553 97.2696 14.7464C97.267 14.0656 97.3836 13.3898 97.6139 12.7498C97.8301 12.1257 98.1653 11.5504 98.6008 11.056C99.034 10.5696 99.562 10.1783 100.152 9.90653C100.756 9.6111 101.441 9.46322 102.206 9.46289C102.931 9.46289 103.583 9.60416 104.16 9.8867C104.726 10.1597 105.227 10.5517 105.63 11.0362C106.056 11.5231 106.378 12.0926 106.577 12.7096C106.794 13.3592 106.903 14.0406 106.899 14.7261C106.898 14.9559 106.877 15.1852 106.838 15.4116H99.1454C99.2392 16.2989 99.595 16.9644 100.213 17.4082C100.83 17.8382 101.623 18.0531 102.589 18.0531ZM104.946 13.5568C104.92 13.265 104.831 12.9826 104.684 12.73C104.535 12.4594 104.329 12.2253 104.08 12.0444C103.829 11.8377 103.542 11.6803 103.234 11.5805C102.902 11.4715 102.555 11.4171 102.207 11.4194C101.845 11.4191 101.485 11.4734 101.139 11.5805C100.817 11.6814 100.511 11.831 100.233 12.0241C99.9785 12.2116 99.7601 12.4438 99.5881 12.7096C99.415 12.9619 99.3044 13.2525 99.2659 13.5568H104.946Z" fill="#1F1F1F"/>
<path d="M108.856 17.8105C109.124 17.4026 109.366 16.9783 109.581 16.5401C109.852 16.0174 110.075 15.4707 110.246 14.9068C110.46 14.235 110.621 13.5474 110.729 12.8502C110.855 12.0228 110.916 11.1866 110.91 10.3495V9.70508H117.577V17.8105H119.249V22.4486H117.497V19.7665H109.621V22.4486H107.869V17.8105H108.856ZM115.743 17.8105V11.6606H112.601C112.565 12.3517 112.478 13.0392 112.339 13.7172C112.232 14.3114 112.084 14.8975 111.897 15.4714C111.754 15.9468 111.579 16.4117 111.373 16.8628C111.232 17.1884 111.07 17.505 110.89 17.8105H115.743Z" fill="#1F1F1F"/>
<path d="M119.77 9.70508H121.824L124.905 17.1052L127.967 9.70508H130.001L124.019 24.0621H121.985L123.919 19.3838L119.77 9.70508Z" fill="#1F1F1F"/>
</g>
<defs>
<clipPath id="clip0_1404_6867">
<rect width="130" height="26.9811" fill="white" transform="translate(0 0.509766)"/>
</clipPath>
</defs>
</svg>
